<?xml version="1.0" encoding="UTF-8"?>
<svg id="Guides" xmlns="http://www.w3.org/2000/svg" version="1.1" viewBox="0 0 368.5 963.78">
  <!-- Generator: Adobe Illustrator 30.0.0, SVG Export Plug-In . SVG Version: 2.1.1 Build 123)  -->
  <defs>
    <style>
      .st0 {
        fill: #1d1d1b;
      }
    </style>
  </defs>
  <g id="QR_CODE">
    <g>
      <g>
        <line class="st0" x1="56.69" y1="14.17" x2="56.69" y2="56.69"/>
        <line class="st0" x1="14.17" y1="56.69" x2="56.69" y2="56.69"/>
      </g>
      <g>
        <path class="st0" d="M35.68,33.34c-1.16-.31-2.3-.65-3.29-1-.18-.06-.36-.13-.52-.13-2.04-.08-3.79-1.58-3.79-4.35s1.68-4.53,4.01-4.53,3.85,1.81,3.85,4.35c0,2.21-1.02,3.62-2.45,4.12v.05c.86.22,1.79.42,2.51.55l-.32.93ZM34.76,27.74c0-1.72-.89-3.5-2.72-3.5s-2.79,1.74-2.78,3.6c-.01,1.82,1,3.47,2.73,3.47s2.77-1.61,2.77-3.57Z"/>
        <path class="st0" d="M37.37,23.59c.56-.11,1.37-.18,2.13-.18,1.19,0,1.95.22,2.49.7.43.38.68.97.68,1.63,0,1.14-.71,1.89-1.62,2.19v.04c.66.23,1.06.84,1.26,1.74.28,1.2.48,2.03.66,2.36h-1.15c-.14-.24-.33-.98-.57-2.05-.26-1.19-.71-1.63-1.72-1.67h-1.05v3.73h-1.11v-8.49ZM38.48,27.51h1.14c1.19,0,1.94-.65,1.94-1.63,0-1.11-.8-1.6-1.98-1.61-.54,0-.92.05-1.1.1v3.14Z"/>
        <path class="st0" d="M27.07,47.11c-.41.2-1.22.41-2.27.41-2.42,0-4.25-1.53-4.25-4.35s1.82-4.52,4.49-4.52c1.07,0,1.75.23,2.04.38l-.27.91c-.42-.2-1.02-.36-1.74-.36-2.02,0-3.36,1.29-3.36,3.55,0,2.11,1.21,3.46,3.31,3.46.68,0,1.37-.14,1.81-.36l.23.88Z"/>
        <path class="st0" d="M35.54,43c0,2.96-1.8,4.53-3.99,4.53s-3.87-1.76-3.87-4.36c0-2.73,1.7-4.52,3.99-4.52s3.87,1.8,3.87,4.35ZM28.87,43.14c0,1.84,1,3.48,2.74,3.48s2.76-1.62,2.76-3.57c0-1.71-.89-3.5-2.74-3.5s-2.76,1.7-2.76,3.59Z"/>
        <path class="st0" d="M36.98,38.9c.68-.1,1.48-.18,2.36-.18,1.6,0,2.73.37,3.48,1.07.77.7,1.21,1.7,1.21,3.09s-.43,2.55-1.24,3.34c-.8.8-2.13,1.24-3.8,1.24-.79,0-1.45-.04-2.02-.1v-8.46ZM38.09,46.51c.28.05.69.06,1.12.06,2.37,0,3.66-1.33,3.66-3.65.01-2.03-1.14-3.32-3.48-3.32-.57,0-1.01.05-1.3.11v6.79Z"/>
        <path class="st0" d="M49.93,43.35h-3.34v3.1h3.73v.93h-4.84v-8.6h4.64v.93h-3.53v2.72h3.34v.92Z"/>
      </g>
    </g>
    <line class="st0" x1="14.17" y1="56.69" x2="14.17" y2="14.17"/>
    <line class="st0" x1="56.69" y1="14.17" x2="14.17" y2="14.17"/>
  </g>
</svg>