<?xml version="1.0" encoding="UTF-8"?>
<svg id="Hex" xmlns="http://www.w3.org/2000/svg" version="1.1" viewBox="0 0 368.5 963.78">
  <!-- Generator: Adobe Illustrator 30.0.0, SVG Export Plug-In . SVG Version: 2.1.1 Build 123)  -->
  <path d="M141.25,104.72l6.02,10.42-6.02,10.42h-12.04l-6.02-10.42,6.02-10.42h12.04ZM130.43,106.83l-4.8,8.32,4.8,8.32h9.61l4.8-8.32-4.8-8.32h-9.61Z"/>
  <path d="M141.25,82.15l6.02,10.42-6.02,10.42h-12.04l-6.02-10.42,6.02-10.42h12.04ZM130.43,84.26l-4.8,8.32,4.8,8.32h9.61l4.8-8.32-4.8-8.32h-9.61Z"/>
  <path d="M141.25,127.29l6.02,10.42-6.02,10.42h-12.04l-6.02-10.42,6.02-10.42s12.04,0,12.04,0ZM130.43,129.39l-4.8,8.32,4.8,8.32h9.61l4.8-8.32-4.8-8.32h-9.61Z"/>
  <path d="M141.25,217.57l6.02,10.42-6.02,10.42h-12.04l-6.02-10.42,6.02-10.42h12.04ZM130.43,219.67l-4.8,8.32,4.8,8.32h9.61l4.8-8.32-4.8-8.32h-9.61Z"/>
  <path d="M141.25,307.84l6.02,10.42-6.02,10.42h-12.04l-6.02-10.42,6.02-10.42h12.04ZM130.43,309.95l-4.8,8.32,4.8,8.32h9.61l4.8-8.32-4.8-8.32h-9.61Z"/>
  <path d="M141.25,262.7l6.02,10.42-6.02,10.42h-12.04l-6.02-10.42,6.02-10.42h12.04ZM130.43,264.81l-4.8,8.32,4.8,8.32h9.61l4.8-8.32-4.8-8.32h-9.61Z"/>
  <path d="M141.25,375.55l6.02,10.42-6.02,10.42h-12.04l-6.02-10.42,6.02-10.42h12.04ZM130.43,377.65l-4.8,8.32,4.8,8.32h9.61l4.8-8.32-4.8-8.32h-9.61Z"/>
  <path d="M141.25,352.98l6.02,10.42-6.02,10.42h-12.04l-6.02-10.42,6.02-10.42h12.04ZM130.43,355.08l-4.8,8.32,4.8,8.32h9.61l4.8-8.32-4.8-8.32h-9.61Z"/>
  <path d="M141.25,330.41l6.02,10.42-6.02,10.42h-12.04l-6.02-10.42,6.02-10.42h12.04ZM130.43,332.51l-4.8,8.32,4.8,8.32h9.61l4.8-8.32-4.8-8.32h-9.61Z"/>
  <path d="M141.25,443.26l6.02,10.42-6.02,10.42h-12.04l-6.02-10.42,6.02-10.42h12.04ZM130.43,445.36l-4.8,8.32,4.8,8.32h9.61l4.8-8.32-4.8-8.32h-9.61Z"/>
  <path d="M141.25,420.69l6.02,10.42-6.02,10.42h-12.04l-6.02-10.42,6.02-10.42h12.04ZM130.43,422.79l-4.8,8.32,4.8,8.32h9.61l4.8-8.32-4.8-8.32h-9.61Z"/>
  <path d="M141.25,398.12l6.02,10.42-6.02,10.42h-12.04l-6.02-10.42,6.02-10.42h12.04ZM130.43,400.22l-4.8,8.32,4.8,8.32h9.61l4.8-8.32-4.8-8.32h-9.61Z"/>
  <path d="M141.25,510.96l6.02,10.42-6.02,10.42h-12.04l-6.02-10.42,6.02-10.42h12.04ZM130.43,513.07l-4.8,8.32,4.8,8.32h9.61l4.8-8.32-4.8-8.32h-9.61Z"/>
  <path d="M141.25,488.39l6.02,10.42-6.02,10.42h-12.04l-6.02-10.42,6.02-10.42h12.04ZM130.43,490.5l-4.8,8.32,4.8,8.32h9.61l4.8-8.32-4.8-8.32h-9.61Z"/>
  <path d="M141.25,465.82l6.02,10.42-6.02,10.42h-12.04l-6.02-10.42,6.02-10.42h12.04ZM130.43,467.93l-4.8,8.32,4.8,8.32h9.61l4.8-8.32-4.8-8.32h-9.61Z"/>
  <path d="M141.25,578.67l6.02,10.42-6.02,10.42h-12.04l-6.02-10.42,6.02-10.42h12.04ZM130.43,580.77l-4.8,8.32,4.8,8.32h9.61l4.8-8.32-4.8-8.32h-9.61Z"/>
  <path d="M141.25,556.1l6.02,10.42-6.02,10.42h-12.04l-6.02-10.42,6.02-10.42h12.04ZM130.43,558.2l-4.8,8.32,4.8,8.32h9.61l4.8-8.32-4.8-8.32h-9.61Z"/>
  <path d="M141.25,533.53l6.02,10.42-6.02,10.42h-12.04l-6.02-10.42,6.02-10.42h12.04ZM130.43,535.64l-4.8,8.32,4.8,8.32h9.61l4.8-8.32-4.8-8.32h-9.61Z"/>
  <path d="M141.25,646.38l6.02,10.42-6.02,10.42h-12.04l-6.02-10.42,6.02-10.42h12.04ZM130.43,648.48l-4.8,8.32,4.8,8.32h9.61l4.8-8.32-4.8-8.32h-9.61Z"/>
  <path d="M141.25,691.51l6.02,10.42-6.02,10.42h-12.04l-6.02-10.42,6.02-10.42h12.04ZM130.43,693.62l-4.8,8.32,4.8,8.32h9.61l4.8-8.32-4.8-8.32h-9.61Z"/>
  <path d="M141.25,781.79l6.02,10.42-6.02,10.42h-12.04l-6.02-10.42,6.02-10.42h12.04ZM130.43,783.89l-4.8,8.32,4.8,8.32h9.61l4.8-8.32-4.8-8.32h-9.61Z"/>
  <path d="M141.25,736.65l6.02,10.42-6.02,10.42h-12.04l-6.02-10.42,6.02-10.42h12.04ZM130.43,738.76l-4.8,8.32,4.8,8.32h9.61l4.8-8.32-4.8-8.32h-9.61Z"/>
  <path d="M141.25,826.93l6.02,10.42-6.02,10.42h-12.04l-6.02-10.42,6.02-10.42h12.04ZM130.43,829.03l-4.8,8.32,4.8,8.32h9.61l4.8-8.32-4.8-8.32h-9.61Z"/>
  <path d="M141.25,872.07l6.02,10.42-6.02,10.42h-12.04l-6.02-10.42,6.02-10.42h12.04ZM130.43,874.17l-4.8,8.32,4.8,8.32h9.61l4.8-8.32-4.8-8.32h-9.61Z"/>
  <path d="M160.87,183.71l6.02,10.42-6.02,10.42h-12.04l-6.02-10.42,6.02-10.42h12.04ZM150.05,185.82l-4.8,8.32,4.8,8.32h9.61l4.8-8.32-4.8-8.32h-9.61Z"/>
  <path d="M160.87,161.14l6.02,10.42-6.02,10.42h-12.04l-6.02-10.42,6.02-10.42h12.04ZM150.05,163.25l-4.8,8.32,4.8,8.32h9.61l4.8-8.32-4.8-8.32h-9.61Z"/>
  <path d="M160.87,138.57l6.02,10.42-6.02,10.42h-12.04l-6.02-10.42,6.02-10.42h12.04ZM150.05,140.68l-4.8,8.32,4.8,8.32h9.61l4.8-8.32-4.8-8.32h-9.61Z"/>
  <path d="M160.87,251.42l6.02,10.42-6.02,10.42h-12.04l-6.02-10.42,6.02-10.42h12.04ZM150.05,253.52l-4.8,8.32,4.8,8.32h9.61l4.8-8.32-4.8-8.32h-9.61Z"/>
  <path d="M160.87,228.85l6.02,10.42-6.02,10.42h-12.04l-6.02-10.42,6.02-10.42h12.04ZM150.05,230.95l-4.8,8.32,4.8,8.32h9.61l4.8-8.32-4.8-8.32h-9.61Z"/>
  <path d="M160.87,206.28l6.02,10.42-6.02,10.42h-12.04l-6.02-10.42,6.02-10.42h12.04ZM150.05,208.38l-4.8,8.32,4.8,8.32h9.61l4.8-8.32-4.8-8.32h-9.61Z"/>
  <path d="M160.87,319.12l6.02,10.42-6.02,10.42h-12.04l-6.02-10.42,6.02-10.42h12.04ZM150.05,321.23l-4.8,8.32,4.8,8.32h9.61l4.8-8.32-4.8-8.32h-9.61Z"/>
  <path d="M160.87,296.56l6.02,10.42-6.02,10.42h-12.04l-6.02-10.42,6.02-10.42h12.04ZM150.05,298.66l-4.8,8.32,4.8,8.32h9.61l4.8-8.32-4.8-8.32h-9.61Z"/>
  <path d="M160.87,273.99l6.02,10.42-6.02,10.42h-12.04l-6.02-10.42,6.02-10.42h12.04ZM150.05,276.09l-4.8,8.32,4.8,8.32h9.61l4.8-8.32-4.8-8.32h-9.61Z"/>
  <path d="M160.87,386.83l6.02,10.42-6.02,10.42h-12.04l-6.02-10.42,6.02-10.42h12.04ZM150.05,388.94l-4.8,8.32,4.8,8.32h9.61l4.8-8.32-4.8-8.32h-9.61Z"/>
  <path d="M160.87,364.26l6.02,10.42-6.02,10.42h-12.04l-6.02-10.42,6.02-10.42h12.04ZM150.05,366.37l-4.8,8.32,4.8,8.32h9.61l4.8-8.32-4.8-8.32h-9.61Z"/>
  <path d="M160.87,341.69l6.02,10.42-6.02,10.42h-12.04l-6.02-10.42,6.02-10.42h12.04ZM150.05,343.8l-4.8,8.32,4.8,8.32h9.61l4.8-8.32-4.8-8.32h-9.61Z"/>
  <path d="M160.87,454.54l6.02,10.42-6.02,10.42h-12.04l-6.02-10.42,6.02-10.42h12.04ZM150.05,456.64l-4.8,8.32,4.8,8.32h9.61l4.8-8.32-4.8-8.32h-9.61Z"/>
  <path d="M160.87,431.97l6.02,10.42-6.02,10.42h-12.04l-6.02-10.42,6.02-10.42h12.04ZM150.05,434.07l-4.8,8.32,4.8,8.32h9.61l4.8-8.32-4.8-8.32h-9.61Z"/>
  <path d="M160.87,409.4l6.02,10.42-6.02,10.42h-12.04l-6.02-10.42,6.02-10.42h12.04ZM150.05,411.5l-4.8,8.32,4.8,8.32h9.61l4.8-8.32-4.8-8.32h-9.61Z"/>
  <path d="M160.87,522.25l6.02,10.42-6.02,10.42h-12.04l-6.02-10.42,6.02-10.42h12.04ZM150.05,524.35l-4.8,8.32,4.8,8.32h9.61l4.8-8.32-4.8-8.32h-9.61Z"/>
  <path d="M160.87,499.68l6.02,10.42-6.02,10.42h-12.04l-6.02-10.42,6.02-10.42h12.04ZM150.05,501.78l-4.8,8.32,4.8,8.32h9.61l4.8-8.32-4.8-8.32h-9.61Z"/>
  <path d="M160.87,477.11l6.02,10.42-6.02,10.42h-12.04l-6.02-10.42,6.02-10.42h12.04ZM150.05,479.21l-4.8,8.32,4.8,8.32h9.61l4.8-8.32-4.8-8.32h-9.61Z"/>
  <path d="M160.87,589.95l6.02,10.42-6.02,10.42h-12.04l-6.02-10.42,6.02-10.42h12.04ZM150.05,592.06l-4.8,8.32,4.8,8.32h9.61l4.8-8.32-4.8-8.32h-9.61Z"/>
  <path d="M160.87,567.38l6.02,10.42-6.02,10.42h-12.04l-6.02-10.42,6.02-10.42h12.04ZM150.05,569.49l-4.8,8.32,4.8,8.32h9.61l4.8-8.32-4.8-8.32h-9.61Z"/>
  <path d="M160.87,544.81l6.02,10.42-6.02,10.42h-12.04l-6.02-10.42,6.02-10.42h12.04ZM150.05,546.92l-4.8,8.32,4.8,8.32h9.61l4.8-8.32-4.8-8.32h-9.61Z"/>
  <path d="M160.87,657.66l6.02,10.42-6.02,10.42h-12.04l-6.02-10.42,6.02-10.42h12.04ZM150.05,659.76l-4.8,8.32,4.8,8.32h9.61l4.8-8.32-4.8-8.32h-9.61Z"/>
  <path d="M160.87,635.09l6.02,10.42-6.02,10.42h-12.04l-6.02-10.42,6.02-10.42h12.04ZM150.05,637.19l-4.8,8.32,4.8,8.32h9.61l4.8-8.32-4.8-8.32h-9.61Z"/>
  <path d="M160.87,612.52l6.02,10.42-6.02,10.42h-12.04l-6.02-10.42,6.02-10.42h12.04ZM150.05,614.63l-4.8,8.32,4.8,8.32h9.61l4.8-8.32-4.8-8.32h-9.61Z"/>
  <path d="M160.87,725.37l6.02,10.42-6.02,10.42h-12.04l-6.02-10.42,6.02-10.42h12.04ZM150.05,727.47l-4.8,8.32,4.8,8.32h9.61l4.8-8.32-4.8-8.32h-9.61Z"/>
  <path d="M160.87,702.8l6.02,10.42-6.02,10.42h-12.04l-6.02-10.42,6.02-10.42h12.04ZM150.05,704.9l-4.8,8.32,4.8,8.32h9.61l4.8-8.32-4.8-8.32h-9.61Z"/>
  <path d="M160.87,770.5l6.02,10.42-6.02,10.42h-12.04l-6.02-10.42,6.02-10.42h12.04ZM150.05,772.61l-4.8,8.32,4.8,8.32h9.61l4.8-8.32-4.8-8.32h-9.61Z"/>
  <path d="M160.87,838.21l6.02,10.42-6.02,10.42h-12.04l-6.02-10.42,6.02-10.42h12.04ZM150.05,840.32l-4.8,8.32,4.8,8.32h9.61l4.8-8.32-4.8-8.32h-9.61Z"/>
  <path d="M180.43,104.72l6.02,10.42-6.02,10.42h-12.04l-6.02-10.42,6.02-10.42h12.04ZM169.61,106.83l-4.8,8.32,4.8,8.32h9.61l4.8-8.32-4.8-8.32h-9.61Z"/>
  <path d="M180.43,172.43l6.02,10.42-6.02,10.42h-12.04l-6.02-10.42,6.02-10.42h12.04ZM169.61,174.53l-4.8,8.32,4.8,8.32h9.61l4.8-8.32-4.8-8.32h-9.61Z"/>
  <path d="M180.43,149.86l6.02,10.42-6.02,10.42h-12.04l-6.02-10.42,6.02-10.42h12.04ZM169.61,151.96l-4.8,8.32,4.8,8.32h9.61l4.8-8.32-4.8-8.32h-9.61Z"/>
  <path d="M180.43,240.13l6.02,10.42-6.02,10.42h-12.04l-6.02-10.42,6.02-10.42h12.04ZM169.61,242.24l-4.8,8.32,4.8,8.32h9.61l4.8-8.32-4.8-8.32h-9.61Z"/>
  <path d="M180.43,217.57l6.02,10.42-6.02,10.42h-12.04l-6.02-10.42,6.02-10.42h12.04ZM169.61,219.67l-4.8,8.32,4.8,8.32h9.61l4.8-8.32-4.8-8.32h-9.61Z"/>
  <path d="M180.43,195l6.02,10.42-6.02,10.42h-12.04l-6.02-10.42,6.02-10.42h12.04ZM169.61,197.1l-4.8,8.32,4.8,8.32h9.61l4.8-8.32-4.8-8.32h-9.61Z"/>
  <path d="M180.43,307.84l6.02,10.42-6.02,10.42h-12.04l-6.02-10.42,6.02-10.42h12.04ZM169.61,309.95l-4.8,8.32,4.8,8.32h9.61l4.8-8.32-4.8-8.32h-9.61Z"/>
  <path d="M180.43,285.27l6.02,10.42-6.02,10.42h-12.04l-6.02-10.42,6.02-10.42h12.04ZM169.61,287.38l-4.8,8.32,4.8,8.32h9.61l4.8-8.32-4.8-8.32h-9.61Z"/>
  <path d="M180.43,262.7l6.02,10.42-6.02,10.42h-12.04l-6.02-10.42,6.02-10.42h12.04ZM169.61,264.81l-4.8,8.32,4.8,8.32h9.61l4.8-8.32-4.8-8.32h-9.61Z"/>
  <path d="M180.43,375.55l6.02,10.42-6.02,10.42h-12.04l-6.02-10.42,6.02-10.42h12.04ZM169.61,377.65l-4.8,8.32,4.8,8.32h9.61l4.8-8.32-4.8-8.32h-9.61Z"/>
  <path d="M180.43,352.98l6.02,10.42-6.02,10.42h-12.04l-6.02-10.42,6.02-10.42h12.04ZM169.61,355.08l-4.8,8.32,4.8,8.32h9.61l4.8-8.32-4.8-8.32h-9.61Z"/>
  <path d="M180.43,330.41l6.02,10.42-6.02,10.42h-12.04l-6.02-10.42,6.02-10.42h12.04ZM169.61,332.51l-4.8,8.32,4.8,8.32h9.61l4.8-8.32-4.8-8.32h-9.61Z"/>
  <path d="M180.43,443.26l6.02,10.42-6.02,10.42h-12.04l-6.02-10.42,6.02-10.42h12.04ZM169.61,445.36l-4.8,8.32,4.8,8.32h9.61l4.8-8.32-4.8-8.32h-9.61Z"/>
  <path d="M180.43,420.69l6.02,10.42-6.02,10.42h-12.04l-6.02-10.42,6.02-10.42h12.04ZM169.61,422.79l-4.8,8.32,4.8,8.32h9.61l4.8-8.32-4.8-8.32h-9.61Z"/>
  <path d="M180.43,398.12l6.02,10.42-6.02,10.42h-12.04l-6.02-10.42,6.02-10.42h12.04ZM169.61,400.22l-4.8,8.32,4.8,8.32h9.61l4.8-8.32-4.8-8.32h-9.61Z"/>
  <path d="M180.43,510.96l6.02,10.42-6.02,10.42h-12.04l-6.02-10.42,6.02-10.42h12.04ZM169.61,513.07l-4.8,8.32,4.8,8.32h9.61l4.8-8.32-4.8-8.32h-9.61Z"/>
  <path d="M180.43,488.39l6.02,10.42-6.02,10.42h-12.04l-6.02-10.42,6.02-10.42h12.04ZM169.61,490.5l-4.8,8.32,4.8,8.32h9.61l4.8-8.32-4.8-8.32h-9.61Z"/>
  <path d="M180.43,465.82l6.02,10.42-6.02,10.42h-12.04l-6.02-10.42,6.02-10.42h12.04ZM169.61,467.93l-4.8,8.32,4.8,8.32h9.61l4.8-8.32-4.8-8.32h-9.61Z"/>
  <path d="M180.43,578.67l6.02,10.42-6.02,10.42h-12.04l-6.02-10.42,6.02-10.42h12.04ZM169.61,580.77l-4.8,8.32,4.8,8.32h9.61l4.8-8.32-4.8-8.32h-9.61Z"/>
  <path d="M180.43,556.1l6.02,10.42-6.02,10.42h-12.04l-6.02-10.42,6.02-10.42h12.04ZM169.61,558.2l-4.8,8.32,4.8,8.32h9.61l4.8-8.32-4.8-8.32h-9.61Z"/>
  <path d="M180.43,533.53l6.02,10.42-6.02,10.42h-12.04l-6.02-10.42,6.02-10.42h12.04ZM169.61,535.64l-4.8,8.32,4.8,8.32h9.61l4.8-8.32-4.8-8.32h-9.61Z"/>
  <path d="M180.43,646.38l6.02,10.42-6.02,10.42h-12.04l-6.02-10.42,6.02-10.42h12.04ZM169.61,648.48l-4.8,8.32,4.8,8.32h9.61l4.8-8.32-4.8-8.32h-9.61Z"/>
  <path d="M180.43,623.81l6.02,10.42-6.02,10.42h-12.04l-6.02-10.42,6.02-10.42h12.04ZM169.61,625.91l-4.8,8.32,4.8,8.32h9.61l4.8-8.32-4.8-8.32h-9.61Z"/>
  <path d="M180.43,601.24l6.02,10.42-6.02,10.42h-12.04l-6.02-10.42,6.02-10.42h12.04ZM169.61,603.34l-4.8,8.32,4.8,8.32h9.61l4.8-8.32-4.8-8.32h-9.61Z"/>
  <path d="M180.43,691.51l6.02,10.42-6.02,10.42h-12.04l-6.02-10.42,6.02-10.42h12.04ZM169.61,693.62l-4.8,8.32,4.8,8.32h9.61l4.8-8.32-4.8-8.32h-9.61Z"/>
  <path d="M180.43,668.95l6.02,10.42-6.02,10.42h-12.04l-6.02-10.42,6.02-10.42h12.04ZM169.61,671.05l-4.8,8.32,4.8,8.32h9.61l4.8-8.32-4.8-8.32h-9.61Z"/>
  <path d="M180.43,759.22l6.02,10.42-6.02,10.42h-12.04l-6.02-10.42,6.02-10.42h12.04ZM169.61,761.33l-4.8,8.32,4.8,8.32h9.61l4.8-8.32-4.8-8.32h-9.61Z"/>
  <path d="M180.43,736.65l6.02,10.42-6.02,10.42h-12.04l-6.02-10.42,6.02-10.42h12.04ZM169.61,738.76l-4.8,8.32,4.8,8.32h9.61l4.8-8.32-4.8-8.32h-9.61Z"/>
  <path d="M180.43,804.36l6.02,10.42-6.02,10.42h-12.04l-6.02-10.42,6.02-10.42h12.04ZM169.61,806.46l-4.8,8.32,4.8,8.32h9.61l4.8-8.32-4.8-8.32h-9.61Z"/>
  <path d="M200.05,116l6.02,10.42-6.02,10.42h-12.04l-6.02-10.42,6.02-10.42h12.04ZM189.23,118.11l-4.8,8.32,4.8,8.32h9.61l4.8-8.32-4.8-8.32h-9.61Z"/>
  <path d="M200.05,93.44l6.02,10.42-6.02,10.42h-12.04l-6.02-10.42,6.02-10.42h12.04ZM189.23,95.54l-4.8,8.32,4.8,8.32h9.61l4.8-8.32-4.8-8.32h-9.61Z"/>
  <path d="M200.05,70.87l6.02,10.42-6.02,10.42h-12.04l-6.02-10.42,6.02-10.42h12.04ZM189.23,72.97l-4.8,8.32,4.8,8.32h9.61l4.8-8.32-4.8-8.32h-9.61Z"/>
  <path d="M200.05,183.71l6.02,10.42-6.02,10.42h-12.04l-6.02-10.42,6.02-10.42h12.04ZM189.23,185.82l-4.8,8.32,4.8,8.32h9.61l4.8-8.32-4.8-8.32h-9.61Z"/>
  <path d="M200.05,161.14l6.02,10.42-6.02,10.42h-12.04l-6.02-10.42,6.02-10.42h12.04ZM189.23,163.25l-4.8,8.32,4.8,8.32h9.61l4.8-8.32-4.8-8.32h-9.61Z"/>
  <path d="M200.05,138.57l6.02,10.42-6.02,10.42h-12.04l-6.02-10.42,6.02-10.42h12.04ZM189.23,140.68l-4.8,8.32,4.8,8.32h9.61l4.8-8.32-4.8-8.32h-9.61Z"/>
  <path d="M200.05,251.42l6.02,10.42-6.02,10.42h-12.04l-6.02-10.42,6.02-10.42h12.04ZM189.23,253.52l-4.8,8.32,4.8,8.32h9.61l4.8-8.32-4.8-8.32h-9.61Z"/>
  <path d="M200.05,228.85l6.02,10.42-6.02,10.42h-12.04l-6.02-10.42,6.02-10.42h12.04ZM189.23,230.95l-4.8,8.32,4.8,8.32h9.61l4.8-8.32-4.8-8.32h-9.61Z"/>
  <path d="M200.05,206.28l6.02,10.42-6.02,10.42h-12.04l-6.02-10.42,6.02-10.42h12.04ZM189.23,208.38l-4.8,8.32,4.8,8.32h9.61l4.8-8.32-4.8-8.32h-9.61Z"/>
  <path d="M200.05,319.12l6.02,10.42-6.02,10.42h-12.04l-6.02-10.42,6.02-10.42h12.04ZM189.23,321.23l-4.8,8.32,4.8,8.32h9.61l4.8-8.32-4.8-8.32h-9.61Z"/>
  <path d="M200.05,296.56l6.02,10.42-6.02,10.42h-12.04l-6.02-10.42,6.02-10.42h12.04ZM189.23,298.66l-4.8,8.32,4.8,8.32h9.61l4.8-8.32-4.8-8.32h-9.61Z"/>
  <path d="M200.05,273.99l6.02,10.42-6.02,10.42h-12.04l-6.02-10.42,6.02-10.42h12.04ZM189.23,276.09l-4.8,8.32,4.8,8.32h9.61l4.8-8.32-4.8-8.32h-9.61Z"/>
  <path d="M200.05,386.83l6.02,10.42-6.02,10.42h-12.04l-6.02-10.42,6.02-10.42h12.04ZM189.23,388.94l-4.8,8.32,4.8,8.32h9.61l4.8-8.32-4.8-8.32h-9.61Z"/>
  <path d="M200.05,364.26l6.02,10.42-6.02,10.42h-12.04l-6.02-10.42,6.02-10.42h12.04ZM189.23,366.37l-4.8,8.32,4.8,8.32h9.61l4.8-8.32-4.8-8.32h-9.61Z"/>
  <path d="M200.05,341.69l6.02,10.42-6.02,10.42h-12.04l-6.02-10.42,6.02-10.42h12.04ZM189.23,343.8l-4.8,8.32,4.8,8.32h9.61l4.8-8.32-4.8-8.32h-9.61Z"/>
  <path d="M200.05,454.54l6.02,10.42-6.02,10.42h-12.04l-6.02-10.42,6.02-10.42h12.04ZM189.23,456.64l-4.8,8.32,4.8,8.32h9.61l4.8-8.32-4.8-8.32h-9.61Z"/>
  <path d="M200.05,431.97l6.02,10.42-6.02,10.42h-12.04l-6.02-10.42,6.02-10.42h12.04ZM189.23,434.07l-4.8,8.32,4.8,8.32h9.61l4.8-8.32-4.8-8.32h-9.61Z"/>
  <path d="M200.05,409.4l6.02,10.42-6.02,10.42h-12.04l-6.02-10.42,6.02-10.42h12.04ZM189.23,411.5l-4.8,8.32,4.8,8.32h9.61l4.8-8.32-4.8-8.32h-9.61Z"/>
  <path d="M200.05,522.25l6.02,10.42-6.02,10.42h-12.04l-6.02-10.42,6.02-10.42h12.04ZM189.23,524.35l-4.8,8.32,4.8,8.32h9.61l4.8-8.32-4.8-8.32h-9.61Z"/>
  <path d="M200.05,499.68l6.02,10.42-6.02,10.42h-12.04l-6.02-10.42,6.02-10.42h12.04ZM189.23,501.78l-4.8,8.32,4.8,8.32h9.61l4.8-8.32-4.8-8.32h-9.61Z"/>
  <path d="M200.05,477.11l6.02,10.42-6.02,10.42h-12.04l-6.02-10.42,6.02-10.42h12.04ZM189.23,479.21l-4.8,8.32,4.8,8.32h9.61l4.8-8.32-4.8-8.32h-9.61Z"/>
  <path d="M200.05,589.95l6.02,10.42-6.02,10.42h-12.04l-6.02-10.42,6.02-10.42h12.04ZM189.23,592.06l-4.8,8.32,4.8,8.32h9.61l4.8-8.32-4.8-8.32h-9.61Z"/>
  <path d="M200.05,567.38l6.02,10.42-6.02,10.42h-12.04l-6.02-10.42,6.02-10.42h12.04ZM189.23,569.49l-4.8,8.32,4.8,8.32h9.61l4.8-8.32-4.8-8.32h-9.61Z"/>
  <path d="M200.05,544.81l6.02,10.42-6.02,10.42h-12.04l-6.02-10.42,6.02-10.42h12.04ZM189.23,546.92l-4.8,8.32,4.8,8.32h9.61l4.8-8.32-4.8-8.32h-9.61Z"/>
  <path d="M200.05,657.66l6.02,10.42-6.02,10.42h-12.04l-6.02-10.42,6.02-10.42h12.04ZM189.23,659.76l-4.8,8.32,4.8,8.32h9.61l4.8-8.32-4.8-8.32h-9.61Z"/>
  <path d="M200.05,635.09l6.02,10.42-6.02,10.42h-12.04l-6.02-10.42,6.02-10.42h12.04ZM189.23,637.19l-4.8,8.32,4.8,8.32h9.61l4.8-8.32-4.8-8.32h-9.61Z"/>
  <path d="M200.05,612.52l6.02,10.42-6.02,10.42h-12.04l-6.02-10.42,6.02-10.42h12.04ZM189.23,614.63l-4.8,8.32,4.8,8.32h9.61l4.8-8.32-4.8-8.32h-9.61Z"/>
  <path d="M200.05,725.37l6.02,10.42-6.02,10.42h-12.04l-6.02-10.42,6.02-10.42h12.04ZM189.23,727.47l-4.8,8.32,4.8,8.32h9.61l4.8-8.32-4.8-8.32h-9.61Z"/>
  <path d="M200.05,702.8l6.02,10.42-6.02,10.42h-12.04l-6.02-10.42,6.02-10.42h12.04ZM189.23,704.9l-4.8,8.32,4.8,8.32h9.61l4.8-8.32-4.8-8.32h-9.61Z"/>
  <path d="M200.05,680.23l6.02,10.42-6.02,10.42h-12.04l-6.02-10.42,6.02-10.42h12.04ZM189.23,682.33l-4.8,8.32,4.8,8.32h9.61l4.8-8.32-4.8-8.32h-9.61Z"/>
  <path d="M200.05,793.07l6.02,10.42-6.02,10.42h-12.04l-6.02-10.42,6.02-10.42h12.04ZM189.23,795.18l-4.8,8.32,4.8,8.32h9.61l4.8-8.32-4.8-8.32h-9.61Z"/>
  <path d="M200.05,770.5l6.02,10.42-6.02,10.42h-12.04l-6.02-10.42,6.02-10.42h12.04ZM189.23,772.61l-4.8,8.32,4.8,8.32h9.61l4.8-8.32-4.8-8.32h-9.61Z"/>
  <path d="M200.05,838.21l6.02,10.42-6.02,10.42h-12.04l-6.02-10.42,6.02-10.42h12.04ZM189.23,840.32l-4.8,8.32,4.8,8.32h9.61l4.8-8.32-4.8-8.32h-9.61Z"/>
  <path d="M219.67,104.72l6.02,10.42-6.02,10.42h-12.04l-6.02-10.42,6.02-10.42h12.04ZM208.85,106.83l-4.8,8.32,4.8,8.32h9.61l4.8-8.32-4.8-8.32h-9.61Z"/>
  <path d="M219.67,172.43l6.02,10.42-6.02,10.42h-12.04l-6.02-10.42,6.02-10.42h12.04ZM208.85,174.53l-4.8,8.32,4.8,8.32h9.61l4.8-8.32-4.8-8.32h-9.61Z"/>
  <path d="M219.67,149.86l6.02,10.42-6.02,10.42h-12.04l-6.02-10.42,6.02-10.42h12.04ZM208.85,151.96l-4.8,8.32,4.8,8.32h9.61l4.8-8.32-4.8-8.32h-9.61Z"/>
  <path d="M219.67,240.13l6.02,10.42-6.02,10.42h-12.04l-6.02-10.42,6.02-10.42h12.04ZM208.85,242.24l-4.8,8.32,4.8,8.32h9.61l4.8-8.32-4.8-8.32h-9.61Z"/>
  <path d="M219.67,217.57l6.02,10.42-6.02,10.42h-12.04l-6.02-10.42,6.02-10.42h12.04ZM208.85,219.67l-4.8,8.32,4.8,8.32h9.61l4.8-8.32-4.8-8.32h-9.61Z"/>
  <path d="M219.67,195l6.02,10.42-6.02,10.42h-12.04l-6.02-10.42,6.02-10.42h12.04ZM208.85,197.1l-4.8,8.32,4.8,8.32h9.61l4.8-8.32-4.8-8.32h-9.61Z"/>
  <path d="M219.67,307.84l6.02,10.42-6.02,10.42h-12.04l-6.02-10.42,6.02-10.42h12.04ZM208.85,309.95l-4.8,8.32,4.8,8.32h9.61l4.8-8.32-4.8-8.32h-9.61Z"/>
  <path d="M219.67,285.27l6.02,10.42-6.02,10.42h-12.04l-6.02-10.42,6.02-10.42h12.04ZM208.85,287.38l-4.8,8.32,4.8,8.32h9.61l4.8-8.32-4.8-8.32h-9.61Z"/>
  <path d="M219.67,375.55l6.02,10.42-6.02,10.42h-12.04l-6.02-10.42,6.02-10.42h12.04ZM208.85,377.65l-4.8,8.32,4.8,8.32h9.61l4.8-8.32-4.8-8.32h-9.61Z"/>
  <path d="M219.67,352.98l6.02,10.42-6.02,10.42h-12.04l-6.02-10.42,6.02-10.42h12.04ZM208.85,355.08l-4.8,8.32,4.8,8.32h9.61l4.8-8.32-4.8-8.32h-9.61Z"/>
  <path d="M219.67,330.41l6.02,10.42-6.02,10.42h-12.04l-6.02-10.42,6.02-10.42h12.04ZM208.85,332.51l-4.8,8.32,4.8,8.32h9.61l4.8-8.32-4.8-8.32h-9.61Z"/>
  <path d="M219.67,443.26l6.02,10.42-6.02,10.42h-12.04l-6.02-10.42,6.02-10.42h12.04ZM208.85,445.36l-4.8,8.32,4.8,8.32h9.61l4.8-8.32-4.8-8.32h-9.61Z"/>
  <path d="M219.67,420.69l6.02,10.42-6.02,10.42h-12.04l-6.02-10.42,6.02-10.42h12.04ZM208.85,422.79l-4.8,8.32,4.8,8.32h9.61l4.8-8.32-4.8-8.32h-9.61Z"/>
  <path d="M219.67,398.12l6.02,10.42-6.02,10.42h-12.04l-6.02-10.42,6.02-10.42h12.04ZM208.85,400.22l-4.8,8.32,4.8,8.32h9.61l4.8-8.32-4.8-8.32h-9.61Z"/>
  <path d="M219.67,510.96l6.02,10.42-6.02,10.42h-12.04l-6.02-10.42,6.02-10.42h12.04ZM208.85,513.07l-4.8,8.32,4.8,8.32h9.61l4.8-8.32-4.8-8.32h-9.61Z"/>
  <path d="M219.67,465.82l6.02,10.42-6.02,10.42h-12.04l-6.02-10.42,6.02-10.42h12.04ZM208.85,467.93l-4.8,8.32,4.8,8.32h9.61l4.8-8.32-4.8-8.32h-9.61Z"/>
  <path d="M219.67,578.67l6.02,10.42-6.02,10.42h-12.04l-6.02-10.42,6.02-10.42h12.04ZM208.85,580.77l-4.8,8.32,4.8,8.32h9.61l4.8-8.32-4.8-8.32h-9.61Z"/>
  <path d="M219.67,556.1l6.02,10.42-6.02,10.42h-12.04l-6.02-10.42,6.02-10.42h12.04ZM208.85,558.2l-4.8,8.32,4.8,8.32h9.61l4.8-8.32-4.8-8.32h-9.61Z"/>
  <path d="M219.67,533.53l6.02,10.42-6.02,10.42h-12.04l-6.02-10.42,6.02-10.42h12.04ZM208.85,535.64l-4.8,8.32,4.8,8.32h9.61l4.8-8.32-4.8-8.32h-9.61Z"/>
  <path d="M219.67,646.38l6.02,10.42-6.02,10.42h-12.04l-6.02-10.42,6.02-10.42h12.04ZM208.85,648.48l-4.8,8.32,4.8,8.32h9.61l4.8-8.32-4.8-8.32h-9.61Z"/>
  <path d="M219.67,623.81l6.02,10.42-6.02,10.42h-12.04l-6.02-10.42,6.02-10.42h12.04ZM208.85,625.91l-4.8,8.32,4.8,8.32h9.61l4.8-8.32-4.8-8.32h-9.61Z"/>
  <path d="M219.67,601.24l6.02,10.42-6.02,10.42h-12.04l-6.02-10.42,6.02-10.42h12.04ZM208.85,603.34l-4.8,8.32,4.8,8.32h9.61l4.8-8.32-4.8-8.32h-9.61Z"/>
  <path d="M219.67,714.08l6.02,10.42-6.02,10.42h-12.04l-6.02-10.42,6.02-10.42h12.04ZM208.85,716.19l-4.8,8.32,4.8,8.32h9.61l4.8-8.32-4.8-8.32h-9.61Z"/>
  <path d="M219.67,668.95l6.02,10.42-6.02,10.42h-12.04l-6.02-10.42,6.02-10.42h12.04ZM208.85,671.05l-4.8,8.32,4.8,8.32h9.61l4.8-8.32-4.8-8.32h-9.61Z"/>
  <path d="M219.67,759.22l6.02,10.42-6.02,10.42h-12.04l-6.02-10.42,6.02-10.42h12.04ZM208.85,761.33l-4.8,8.32,4.8,8.32h9.61l4.8-8.32-4.8-8.32h-9.61Z"/>
  <path d="M219.67,736.65l6.02,10.42-6.02,10.42h-12.04l-6.02-10.42,6.02-10.42h12.04ZM208.85,738.76l-4.8,8.32,4.8,8.32h9.61l4.8-8.32-4.8-8.32h-9.61Z"/>
  <path d="M219.67,804.36l6.02,10.42-6.02,10.42h-12.04l-6.02-10.42,6.02-10.42h12.04ZM208.85,806.46l-4.8,8.32,4.8,8.32h9.61l4.8-8.32-4.8-8.32h-9.61Z"/>
  <path d="M219.67,872.07l6.02,10.42-6.02,10.42h-12.04l-6.02-10.42,6.02-10.42h12.04ZM208.85,874.17l-4.8,8.32,4.8,8.32h9.61l4.8-8.32-4.8-8.32h-9.61Z"/>
  <path d="M239.29,183.71l6.02,10.42-6.02,10.42h-12.04l-6.02-10.42,6.02-10.42h12.04ZM228.47,185.82l-4.8,8.32,4.8,8.32h9.61l4.8-8.32-4.8-8.32h-9.61Z"/>
  <path d="M239.29,138.57l6.02,10.42-6.02,10.42h-12.04l-6.02-10.42,6.02-10.42h12.04ZM228.47,140.68l-4.8,8.32,4.8,8.32h9.61l4.8-8.32-4.8-8.32h-9.61Z"/>
  <path d="M239.29,251.42l6.02,10.42-6.02,10.42h-12.04l-6.02-10.42,6.02-10.42h12.04ZM228.47,253.52l-4.8,8.32,4.8,8.32h9.61l4.8-8.32-4.8-8.32h-9.61Z"/>
  <path d="M239.29,319.12l6.02,10.42-6.02,10.42h-12.04l-6.02-10.42,6.02-10.42h12.04ZM228.47,321.23l-4.8,8.32,4.8,8.32h9.61l4.8-8.32-4.8-8.32h-9.61Z"/>
  <path d="M239.29,296.56l6.02,10.42-6.02,10.42h-12.04l-6.02-10.42,6.02-10.42h12.04ZM228.47,298.66l-4.8,8.32,4.8,8.32h9.61l4.8-8.32-4.8-8.32h-9.61Z"/>
  <path d="M239.29,386.83l6.02,10.42-6.02,10.42h-12.04l-6.02-10.42,6.02-10.42h12.04ZM228.47,388.94l-4.8,8.32,4.8,8.32h9.61l4.8-8.32-4.8-8.32h-9.61Z"/>
  <path d="M239.29,364.26l6.02,10.42-6.02,10.42h-12.04l-6.02-10.42,6.02-10.42h12.04ZM228.47,366.37l-4.8,8.32,4.8,8.32h9.61l4.8-8.32-4.8-8.32h-9.61Z"/>
  <path d="M239.29,341.69l6.02,10.42-6.02,10.42h-12.04l-6.02-10.42,6.02-10.42h12.04ZM228.47,343.8l-4.8,8.32,4.8,8.32h9.61l4.8-8.32-4.8-8.32h-9.61Z"/>
  <path d="M239.29,454.54l6.02,10.42-6.02,10.42h-12.04l-6.02-10.42,6.02-10.42h12.04ZM228.47,456.64l-4.8,8.32,4.8,8.32h9.61l4.8-8.32-4.8-8.32h-9.61Z"/>
  <path d="M239.29,431.97l6.02,10.42-6.02,10.42h-12.04l-6.02-10.42,6.02-10.42h12.04ZM228.47,434.07l-4.8,8.32,4.8,8.32h9.61l4.8-8.32-4.8-8.32h-9.61Z"/>
  <path d="M239.29,409.4l6.02,10.42-6.02,10.42h-12.04l-6.02-10.42,6.02-10.42h12.04ZM228.47,411.5l-4.8,8.32,4.8,8.32h9.61l4.8-8.32-4.8-8.32h-9.61Z"/>
  <path d="M239.29,522.25l6.02,10.42-6.02,10.42h-12.04l-6.02-10.42,6.02-10.42h12.04ZM228.47,524.35l-4.8,8.32,4.8,8.32h9.61l4.8-8.32-4.8-8.32h-9.61Z"/>
  <path d="M239.29,499.68l6.02,10.42-6.02,10.42h-12.04l-6.02-10.42,6.02-10.42h12.04ZM228.47,501.78l-4.8,8.32,4.8,8.32h9.61l4.8-8.32-4.8-8.32h-9.61Z"/>
  <path d="M239.29,477.11l6.02,10.42-6.02,10.42h-12.04l-6.02-10.42,6.02-10.42h12.04ZM228.47,479.21l-4.8,8.32,4.8,8.32h9.61l4.8-8.32-4.8-8.32h-9.61Z"/>
  <path d="M239.29,589.95l6.02,10.42-6.02,10.42h-12.04l-6.02-10.42,6.02-10.42h12.04ZM228.47,592.06l-4.8,8.32,4.8,8.32h9.61l4.8-8.32-4.8-8.32h-9.61Z"/>
  <path d="M239.29,544.81l6.02,10.42-6.02,10.42h-12.04l-6.02-10.42,6.02-10.42h12.04ZM228.47,546.92l-4.8,8.32,4.8,8.32h9.61l4.8-8.32-4.8-8.32h-9.61Z"/>
  <path d="M239.29,657.66l6.02,10.42-6.02,10.42h-12.04l-6.02-10.42,6.02-10.42h12.04ZM228.47,659.76l-4.8,8.32,4.8,8.32h9.61l4.8-8.32-4.8-8.32h-9.61Z"/>
  <path d="M239.29,635.09l6.02,10.42-6.02,10.42h-12.04l-6.02-10.42,6.02-10.42h12.04ZM228.47,637.19l-4.8,8.32,4.8,8.32h9.61l4.8-8.32-4.8-8.32h-9.61Z"/>
  <path d="M239.29,702.8l6.02,10.42-6.02,10.42h-12.04l-6.02-10.42,6.02-10.42h12.04ZM228.47,704.9l-4.8,8.32,4.8,8.32h9.61l4.8-8.32-4.8-8.32h-9.61Z"/>
  <path d="M239.29,747.94l6.02,10.42-6.02,10.42h-12.04l-6.02-10.42,6.02-10.42h12.04ZM228.47,750.04l-4.8,8.32,4.8,8.32h9.61l4.8-8.32-4.8-8.32h-9.61Z"/>
  <path d="M239.29,838.21l6.02,10.42-6.02,10.42h-12.04l-6.02-10.42,6.02-10.42h12.04ZM228.47,840.32l-4.8,8.32,4.8,8.32h9.61l4.8-8.32-4.8-8.32h-9.61Z"/>
  <path d="M219.67,488.39l6.02,10.42-6.02,10.42h-12.04l-6.02-10.42,6.02-10.42h12.04ZM208.85,490.5l-4.8,8.32,4.8,8.32h9.61l4.8-8.32-4.8-8.32h-9.61Z"/>
  <path d="M239.23,567.38l6.02,10.42-6.02,10.42h-12.04l-6.02-10.42,6.02-10.42h12.04ZM228.41,569.49l-4.8,8.32,4.8,8.32h9.61l4.8-8.32-4.8-8.32h-9.61Z"/>
  <path d="M141.25,601.24l6.02,10.42-6.02,10.42h-12.04l-6.02-10.42,6.02-10.42h12.04ZM130.43,603.34l-4.8,8.32,4.8,8.32h9.61l4.8-8.32-4.8-8.32h-9.61Z"/>
</svg>