<?xml version="1.0" encoding="UTF-8"?>
<svg xmlns="http://www.w3.org/2000/svg" version="1.1" viewBox="0 0 226.77 907.09">
  <!-- Generator: Adobe Illustrator 30.0.0, SVG Export Plug-In . SVG Version: 2.1.1 Build 123)  -->
  <defs>
    <style>
      .st0 {
        fill: #fbba05;
      }

      .st1 {
        fill-rule: evenodd;
      }
    </style>
  </defs>
  <g id="Hex">
    <g>
      <path d="M88.92,104.72l6.02,10.42-6.02,10.42h-12.04s-6.02-10.42-6.02-10.42l6.02-10.42h12.04ZM78.1,106.83l-4.8,8.32,4.8,8.32h9.61s4.8-8.32,4.8-8.32l-4.8-8.32h-9.61Z"/>
      <path d="M88.92,82.15l6.02,10.42-6.02,10.42h-12.04s-6.02-10.42-6.02-10.42l6.02-10.42h12.04ZM78.1,84.26l-4.8,8.32,4.8,8.32h9.61s4.8-8.32,4.8-8.32l-4.8-8.32h-9.61Z"/>
      <path d="M88.92,127.29l6.02,10.42-6.02,10.42h-12.04s-6.02-10.42-6.02-10.42l6.02-10.42h12.04ZM78.1,129.39l-4.8,8.32,4.8,8.32h9.61s4.8-8.32,4.8-8.32l-4.8-8.32h-9.61Z"/>
      <path d="M88.92,217.57l6.02,10.42-6.02,10.42h-12.04s-6.02-10.42-6.02-10.42l6.02-10.42h12.04ZM78.1,219.67l-4.8,8.32,4.8,8.32h9.61s4.8-8.32,4.8-8.32l-4.8-8.32h-9.61Z"/>
      <path d="M88.92,307.84l6.02,10.42-6.02,10.42h-12.04s-6.02-10.42-6.02-10.42l6.02-10.42h12.04ZM78.1,309.95l-4.8,8.32,4.8,8.32h9.61s4.8-8.32,4.8-8.32l-4.8-8.32h-9.61Z"/>
      <path d="M88.92,262.7l6.02,10.42-6.02,10.42h-12.04s-6.02-10.42-6.02-10.42l6.02-10.42h12.04ZM78.1,264.81l-4.8,8.32,4.8,8.32h9.61s4.8-8.32,4.8-8.32l-4.8-8.32h-9.61Z"/>
      <path d="M88.92,375.55l6.02,10.42-6.02,10.42h-12.04s-6.02-10.42-6.02-10.42l6.02-10.42h12.04ZM78.1,377.65l-4.8,8.32,4.8,8.32h9.61s4.8-8.32,4.8-8.32l-4.8-8.32h-9.61Z"/>
      <path d="M88.92,352.98l6.02,10.42-6.02,10.42h-12.04s-6.02-10.42-6.02-10.42l6.02-10.42h12.04ZM78.1,355.08l-4.8,8.32,4.8,8.32h9.61s4.8-8.32,4.8-8.32l-4.8-8.32h-9.61Z"/>
      <path d="M88.92,330.41l6.02,10.42-6.02,10.42h-12.04s-6.02-10.42-6.02-10.42l6.02-10.42h12.04ZM78.1,332.51l-4.8,8.32,4.8,8.32h9.61s4.8-8.32,4.8-8.32l-4.8-8.32h-9.61Z"/>
      <path d="M88.92,443.26l6.02,10.42-6.02,10.42h-12.04s-6.02-10.42-6.02-10.42l6.02-10.42h12.04ZM78.1,445.36l-4.8,8.32,4.8,8.32h9.61s4.8-8.32,4.8-8.32l-4.8-8.32h-9.61Z"/>
      <path d="M88.92,420.69l6.02,10.42-6.02,10.42h-12.04s-6.02-10.42-6.02-10.42l6.02-10.42h12.04ZM78.1,422.79l-4.8,8.32,4.8,8.32h9.61s4.8-8.32,4.8-8.32l-4.8-8.32h-9.61Z"/>
      <path d="M88.92,398.12l6.02,10.42-6.02,10.42h-12.04s-6.02-10.42-6.02-10.42l6.02-10.42h12.04ZM78.1,400.22l-4.8,8.32,4.8,8.32h9.61s4.8-8.32,4.8-8.32l-4.8-8.32h-9.61Z"/>
      <path d="M88.92,510.96l6.02,10.42-6.02,10.42h-12.04s-6.02-10.42-6.02-10.42l6.02-10.42h12.04ZM78.1,513.07l-4.8,8.32,4.8,8.32h9.61s4.8-8.32,4.8-8.32l-4.8-8.32h-9.61Z"/>
      <path d="M88.92,488.39l6.02,10.42-6.02,10.42h-12.04s-6.02-10.42-6.02-10.42l6.02-10.42h12.04ZM78.1,490.5l-4.8,8.32,4.8,8.32h9.61s4.8-8.32,4.8-8.32l-4.8-8.32h-9.61Z"/>
      <path d="M88.92,465.82l6.02,10.42-6.02,10.42h-12.04s-6.02-10.42-6.02-10.42l6.02-10.42h12.04ZM78.1,467.93l-4.8,8.32,4.8,8.32h9.61s4.8-8.32,4.8-8.32l-4.8-8.32h-9.61Z"/>
      <path d="M88.92,578.67l6.02,10.42-6.02,10.42h-12.04s-6.02-10.42-6.02-10.42l6.02-10.42h12.04ZM78.1,580.77l-4.8,8.32,4.8,8.32h9.61s4.8-8.32,4.8-8.32l-4.8-8.32h-9.61Z"/>
      <path d="M88.92,556.1l6.02,10.42-6.02,10.42h-12.04s-6.02-10.42-6.02-10.42l6.02-10.42h12.04ZM78.1,558.2l-4.8,8.32,4.8,8.32h9.61s4.8-8.32,4.8-8.32l-4.8-8.32h-9.61Z"/>
      <path d="M88.92,533.53l6.02,10.42-6.02,10.42h-12.04s-6.02-10.42-6.02-10.42l6.02-10.42h12.04ZM78.1,535.64l-4.8,8.32,4.8,8.32h9.61s4.8-8.32,4.8-8.32l-4.8-8.32h-9.61Z"/>
      <path d="M88.92,646.38l6.02,10.42-6.02,10.42h-12.04s-6.02-10.42-6.02-10.42l6.02-10.42h12.04ZM78.1,648.48l-4.8,8.32,4.8,8.32h9.61s4.8-8.32,4.8-8.32l-4.8-8.32h-9.61Z"/>
      <path d="M88.92,691.51l6.02,10.42-6.02,10.42h-12.04s-6.02-10.42-6.02-10.42l6.02-10.42h12.04ZM78.1,693.62l-4.8,8.32,4.8,8.32h9.61s4.8-8.32,4.8-8.32l-4.8-8.32h-9.61Z"/>
      <path d="M88.92,781.79l6.02,10.42-6.02,10.42h-12.04s-6.02-10.42-6.02-10.42l6.02-10.42h12.04ZM78.1,783.89l-4.8,8.32,4.8,8.32h9.61s4.8-8.32,4.8-8.32l-4.8-8.32h-9.61Z"/>
      <path d="M88.92,736.65l6.02,10.42-6.02,10.42h-12.04s-6.02-10.42-6.02-10.42l6.02-10.42h12.04ZM78.1,738.76l-4.8,8.32,4.8,8.32h9.61s4.8-8.32,4.8-8.32l-4.8-8.32h-9.61Z"/>
      <path d="M88.92,826.93l6.02,10.42-6.02,10.42h-12.04s-6.02-10.42-6.02-10.42l6.02-10.42h12.04ZM78.1,829.03l-4.8,8.32,4.8,8.32h9.61s4.8-8.32,4.8-8.32l-4.8-8.32h-9.61Z"/>
      <path d="M88.92,872.07l6.02,10.42-6.02,10.42h-12.04s-6.02-10.42-6.02-10.42l6.02-10.42h12.04ZM78.1,874.17l-4.8,8.32,4.8,8.32h9.61s4.8-8.32,4.8-8.32l-4.8-8.32h-9.61Z"/>
      <path d="M108.54,183.71l6.02,10.42-6.02,10.42h-12.04s-6.02-10.42-6.02-10.42l6.02-10.42h12.04ZM97.72,185.82l-4.8,8.32,4.8,8.32h9.61s4.8-8.32,4.8-8.32l-4.8-8.32h-9.61Z"/>
      <path d="M108.54,161.14l6.02,10.42-6.02,10.42h-12.04s-6.02-10.42-6.02-10.42l6.02-10.42h12.04ZM97.72,163.25l-4.8,8.32,4.8,8.32h9.61s4.8-8.32,4.8-8.32l-4.8-8.32h-9.61Z"/>
      <path d="M108.54,138.57l6.02,10.42-6.02,10.42h-12.04s-6.02-10.42-6.02-10.42l6.02-10.42h12.04ZM97.72,140.68l-4.8,8.32,4.8,8.32h9.61s4.8-8.32,4.8-8.32l-4.8-8.32h-9.61Z"/>
      <path d="M108.54,251.42l6.02,10.42-6.02,10.42h-12.04s-6.02-10.42-6.02-10.42l6.02-10.42h12.04ZM97.72,253.52l-4.8,8.32,4.8,8.32h9.61s4.8-8.32,4.8-8.32l-4.8-8.32h-9.61Z"/>
      <path d="M108.54,228.85l6.02,10.42-6.02,10.42h-12.04s-6.02-10.42-6.02-10.42l6.02-10.42h12.04ZM97.72,230.95l-4.8,8.32,4.8,8.32h9.61s4.8-8.32,4.8-8.32l-4.8-8.32h-9.61Z"/>
      <path d="M108.54,206.28l6.02,10.42-6.02,10.42h-12.04s-6.02-10.42-6.02-10.42l6.02-10.42h12.04ZM97.72,208.38l-4.8,8.32,4.8,8.32h9.61s4.8-8.32,4.8-8.32l-4.8-8.32h-9.61Z"/>
      <path d="M108.54,319.12l6.02,10.42-6.02,10.42h-12.04s-6.02-10.42-6.02-10.42l6.02-10.42h12.04ZM97.72,321.23l-4.8,8.32,4.8,8.32h9.61s4.8-8.32,4.8-8.32l-4.8-8.32h-9.61Z"/>
      <path d="M108.54,296.56l6.02,10.42-6.02,10.42h-12.04s-6.02-10.42-6.02-10.42l6.02-10.42h12.04ZM97.72,298.66l-4.8,8.32,4.8,8.32h9.61s4.8-8.32,4.8-8.32l-4.8-8.32h-9.61Z"/>
      <path d="M108.54,273.99l6.02,10.42-6.02,10.42h-12.04s-6.02-10.42-6.02-10.42l6.02-10.42h12.04ZM97.72,276.09l-4.8,8.32,4.8,8.32h9.61s4.8-8.32,4.8-8.32l-4.8-8.32h-9.61Z"/>
      <path d="M108.54,386.83l6.02,10.42-6.02,10.42h-12.04s-6.02-10.42-6.02-10.42l6.02-10.42h12.04ZM97.72,388.94l-4.8,8.32,4.8,8.32h9.61s4.8-8.32,4.8-8.32l-4.8-8.32h-9.61Z"/>
      <path d="M108.54,364.26l6.02,10.42-6.02,10.42h-12.04s-6.02-10.42-6.02-10.42l6.02-10.42h12.04ZM97.72,366.37l-4.8,8.32,4.8,8.32h9.61s4.8-8.32,4.8-8.32l-4.8-8.32h-9.61Z"/>
      <path d="M108.54,341.69l6.02,10.42-6.02,10.42h-12.04s-6.02-10.42-6.02-10.42l6.02-10.42h12.04ZM97.72,343.8l-4.8,8.32,4.8,8.32h9.61s4.8-8.32,4.8-8.32l-4.8-8.32h-9.61Z"/>
      <path d="M108.54,454.54l6.02,10.42-6.02,10.42h-12.04s-6.02-10.42-6.02-10.42l6.02-10.42h12.04ZM97.72,456.64l-4.8,8.32,4.8,8.32h9.61s4.8-8.32,4.8-8.32l-4.8-8.32h-9.61Z"/>
      <path d="M108.54,431.97l6.02,10.42-6.02,10.42h-12.04s-6.02-10.42-6.02-10.42l6.02-10.42h12.04ZM97.72,434.07l-4.8,8.32,4.8,8.32h9.61s4.8-8.32,4.8-8.32l-4.8-8.32h-9.61Z"/>
      <path d="M108.54,409.4l6.02,10.42-6.02,10.42h-12.04s-6.02-10.42-6.02-10.42l6.02-10.42h12.04ZM97.72,411.5l-4.8,8.32,4.8,8.32h9.61s4.8-8.32,4.8-8.32l-4.8-8.32h-9.61Z"/>
      <path d="M108.54,522.25l6.02,10.42-6.02,10.42h-12.04s-6.02-10.42-6.02-10.42l6.02-10.42h12.04ZM97.72,524.35l-4.8,8.32,4.8,8.32h9.61s4.8-8.32,4.8-8.32l-4.8-8.32h-9.61Z"/>
      <path d="M108.54,499.68l6.02,10.42-6.02,10.42h-12.04s-6.02-10.42-6.02-10.42l6.02-10.42h12.04ZM97.72,501.78l-4.8,8.32,4.8,8.32h9.61s4.8-8.32,4.8-8.32l-4.8-8.32h-9.61Z"/>
      <path d="M108.54,477.11l6.02,10.42-6.02,10.42h-12.04s-6.02-10.42-6.02-10.42l6.02-10.42h12.04ZM97.72,479.21l-4.8,8.32,4.8,8.32h9.61s4.8-8.32,4.8-8.32l-4.8-8.32h-9.61Z"/>
      <path d="M108.54,589.95l6.02,10.42-6.02,10.42h-12.04s-6.02-10.42-6.02-10.42l6.02-10.42h12.04ZM97.72,592.06l-4.8,8.32,4.8,8.32h9.61s4.8-8.32,4.8-8.32l-4.8-8.32h-9.61Z"/>
      <path d="M108.54,567.38l6.02,10.42-6.02,10.42h-12.04s-6.02-10.42-6.02-10.42l6.02-10.42h12.04ZM97.72,569.49l-4.8,8.32,4.8,8.32h9.61s4.8-8.32,4.8-8.32l-4.8-8.32h-9.61Z"/>
      <path d="M108.54,544.81l6.02,10.42-6.02,10.42h-12.04s-6.02-10.42-6.02-10.42l6.02-10.42h12.04ZM97.72,546.92l-4.8,8.32,4.8,8.32h9.61s4.8-8.32,4.8-8.32l-4.8-8.32h-9.61Z"/>
      <path d="M108.54,657.66l6.02,10.42-6.02,10.42h-12.04s-6.02-10.42-6.02-10.42l6.02-10.42h12.04ZM97.72,659.76l-4.8,8.32,4.8,8.32h9.61s4.8-8.32,4.8-8.32l-4.8-8.32h-9.61Z"/>
      <path d="M108.54,635.09l6.02,10.42-6.02,10.42h-12.04s-6.02-10.42-6.02-10.42l6.02-10.42h12.04ZM97.72,637.19l-4.8,8.32,4.8,8.32h9.61s4.8-8.32,4.8-8.32l-4.8-8.32h-9.61Z"/>
      <path d="M108.54,612.52l6.02,10.42-6.02,10.42h-12.04s-6.02-10.42-6.02-10.42l6.02-10.42h12.04ZM97.72,614.63l-4.8,8.32,4.8,8.32h9.61s4.8-8.32,4.8-8.32l-4.8-8.32h-9.61Z"/>
      <path d="M108.54,725.37l6.02,10.42-6.02,10.42h-12.04s-6.02-10.42-6.02-10.42l6.02-10.42h12.04ZM97.72,727.47l-4.8,8.32,4.8,8.32h9.61s4.8-8.32,4.8-8.32l-4.8-8.32h-9.61Z"/>
      <path d="M108.54,702.8l6.02,10.42-6.02,10.42h-12.04s-6.02-10.42-6.02-10.42l6.02-10.42h12.04ZM97.72,704.9l-4.8,8.32,4.8,8.32h9.61s4.8-8.32,4.8-8.32l-4.8-8.32h-9.61Z"/>
      <path d="M108.54,770.5l6.02,10.42-6.02,10.42h-12.04s-6.02-10.42-6.02-10.42l6.02-10.42h12.04ZM97.72,772.61l-4.8,8.32,4.8,8.32h9.61s4.8-8.32,4.8-8.32l-4.8-8.32h-9.61Z"/>
      <path d="M108.54,838.21l6.02,10.42-6.02,10.42h-12.04s-6.02-10.42-6.02-10.42l6.02-10.42h12.04ZM97.72,840.32l-4.8,8.32,4.8,8.32h9.61s4.8-8.32,4.8-8.32l-4.8-8.32h-9.61Z"/>
      <path d="M128.1,104.72l6.02,10.42-6.02,10.42h-12.04s-6.02-10.42-6.02-10.42l6.02-10.42h12.04ZM117.28,106.83l-4.8,8.32,4.8,8.32h9.61s4.8-8.32,4.8-8.32l-4.8-8.32h-9.61Z"/>
      <path d="M128.1,172.43l6.02,10.42-6.02,10.42h-12.04s-6.02-10.42-6.02-10.42l6.02-10.42h12.04ZM117.28,174.53l-4.8,8.32,4.8,8.32h9.61s4.8-8.32,4.8-8.32l-4.8-8.32h-9.61Z"/>
      <path d="M128.1,149.86l6.02,10.42-6.02,10.42h-12.04s-6.02-10.42-6.02-10.42l6.02-10.42h12.04ZM117.28,151.96l-4.8,8.32,4.8,8.32h9.61s4.8-8.32,4.8-8.32l-4.8-8.32h-9.61Z"/>
      <path d="M128.1,240.13l6.02,10.42-6.02,10.42h-12.04s-6.02-10.42-6.02-10.42l6.02-10.42h12.04ZM117.28,242.24l-4.8,8.32,4.8,8.32h9.61s4.8-8.32,4.8-8.32l-4.8-8.32h-9.61Z"/>
      <path d="M128.1,217.57l6.02,10.42-6.02,10.42h-12.04s-6.02-10.42-6.02-10.42l6.02-10.42h12.04ZM117.28,219.67l-4.8,8.32,4.8,8.32h9.61s4.8-8.32,4.8-8.32l-4.8-8.32h-9.61Z"/>
      <path d="M128.1,195l6.02,10.42-6.02,10.42h-12.04s-6.02-10.42-6.02-10.42l6.02-10.42h12.04ZM117.28,197.1l-4.8,8.32,4.8,8.32h9.61s4.8-8.32,4.8-8.32l-4.8-8.32h-9.61Z"/>
      <path d="M128.1,307.84l6.02,10.42-6.02,10.42h-12.04s-6.02-10.42-6.02-10.42l6.02-10.42h12.04ZM117.28,309.95l-4.8,8.32,4.8,8.32h9.61s4.8-8.32,4.8-8.32l-4.8-8.32h-9.61Z"/>
      <path d="M128.1,285.27l6.02,10.42-6.02,10.42h-12.04s-6.02-10.42-6.02-10.42l6.02-10.42h12.04ZM117.28,287.38l-4.8,8.32,4.8,8.32h9.61s4.8-8.32,4.8-8.32l-4.8-8.32h-9.61Z"/>
      <path d="M128.1,262.7l6.02,10.42-6.02,10.42h-12.04s-6.02-10.42-6.02-10.42l6.02-10.42h12.04ZM117.28,264.81l-4.8,8.32,4.8,8.32h9.61s4.8-8.32,4.8-8.32l-4.8-8.32h-9.61Z"/>
      <path d="M128.1,375.55l6.02,10.42-6.02,10.42h-12.04s-6.02-10.42-6.02-10.42l6.02-10.42h12.04ZM117.28,377.65l-4.8,8.32,4.8,8.32h9.61s4.8-8.32,4.8-8.32l-4.8-8.32h-9.61Z"/>
      <path d="M128.1,352.98l6.02,10.42-6.02,10.42h-12.04s-6.02-10.42-6.02-10.42l6.02-10.42h12.04ZM117.28,355.08l-4.8,8.32,4.8,8.32h9.61s4.8-8.32,4.8-8.32l-4.8-8.32h-9.61Z"/>
      <path d="M128.1,330.41l6.02,10.42-6.02,10.42h-12.04s-6.02-10.42-6.02-10.42l6.02-10.42h12.04ZM117.28,332.51l-4.8,8.32,4.8,8.32h9.61s4.8-8.32,4.8-8.32l-4.8-8.32h-9.61Z"/>
      <path d="M128.1,443.26l6.02,10.42-6.02,10.42h-12.04s-6.02-10.42-6.02-10.42l6.02-10.42h12.04ZM117.28,445.36l-4.8,8.32,4.8,8.32h9.61s4.8-8.32,4.8-8.32l-4.8-8.32h-9.61Z"/>
      <path d="M128.1,420.69l6.02,10.42-6.02,10.42h-12.04s-6.02-10.42-6.02-10.42l6.02-10.42h12.04ZM117.28,422.79l-4.8,8.32,4.8,8.32h9.61s4.8-8.32,4.8-8.32l-4.8-8.32h-9.61Z"/>
      <path d="M128.1,398.12l6.02,10.42-6.02,10.42h-12.04s-6.02-10.42-6.02-10.42l6.02-10.42h12.04ZM117.28,400.22l-4.8,8.32,4.8,8.32h9.61s4.8-8.32,4.8-8.32l-4.8-8.32h-9.61Z"/>
      <path d="M128.1,510.96l6.02,10.42-6.02,10.42h-12.04s-6.02-10.42-6.02-10.42l6.02-10.42h12.04ZM117.28,513.07l-4.8,8.32,4.8,8.32h9.61s4.8-8.32,4.8-8.32l-4.8-8.32h-9.61Z"/>
      <path d="M128.1,488.39l6.02,10.42-6.02,10.42h-12.04s-6.02-10.42-6.02-10.42l6.02-10.42h12.04ZM117.28,490.5l-4.8,8.32,4.8,8.32h9.61s4.8-8.32,4.8-8.32l-4.8-8.32h-9.61Z"/>
      <path d="M128.1,465.82l6.02,10.42-6.02,10.42h-12.04s-6.02-10.42-6.02-10.42l6.02-10.42h12.04ZM117.28,467.93l-4.8,8.32,4.8,8.32h9.61s4.8-8.32,4.8-8.32l-4.8-8.32h-9.61Z"/>
      <path d="M128.1,578.67l6.02,10.42-6.02,10.42h-12.04s-6.02-10.42-6.02-10.42l6.02-10.42h12.04ZM117.28,580.77l-4.8,8.32,4.8,8.32h9.61s4.8-8.32,4.8-8.32l-4.8-8.32h-9.61Z"/>
      <path d="M128.1,556.1l6.02,10.42-6.02,10.42h-12.04s-6.02-10.42-6.02-10.42l6.02-10.42h12.04ZM117.28,558.2l-4.8,8.32,4.8,8.32h9.61s4.8-8.32,4.8-8.32l-4.8-8.32h-9.61Z"/>
      <path d="M128.1,533.53l6.02,10.42-6.02,10.42h-12.04s-6.02-10.42-6.02-10.42l6.02-10.42h12.04ZM117.28,535.64l-4.8,8.32,4.8,8.32h9.61s4.8-8.32,4.8-8.32l-4.8-8.32h-9.61Z"/>
      <path d="M128.1,646.38l6.02,10.42-6.02,10.42h-12.04s-6.02-10.42-6.02-10.42l6.02-10.42h12.04ZM117.28,648.48l-4.8,8.32,4.8,8.32h9.61s4.8-8.32,4.8-8.32l-4.8-8.32h-9.61Z"/>
      <path d="M128.1,623.81l6.02,10.42-6.02,10.42h-12.04s-6.02-10.42-6.02-10.42l6.02-10.42h12.04ZM117.28,625.91l-4.8,8.32,4.8,8.32h9.61s4.8-8.32,4.8-8.32l-4.8-8.32h-9.61Z"/>
      <path d="M128.1,601.24l6.02,10.42-6.02,10.42h-12.04s-6.02-10.42-6.02-10.42l6.02-10.42h12.04ZM117.28,603.34l-4.8,8.32,4.8,8.32h9.61s4.8-8.32,4.8-8.32l-4.8-8.32h-9.61Z"/>
      <path d="M128.1,691.51l6.02,10.42-6.02,10.42h-12.04s-6.02-10.42-6.02-10.42l6.02-10.42h12.04ZM117.28,693.62l-4.8,8.32,4.8,8.32h9.61s4.8-8.32,4.8-8.32l-4.8-8.32h-9.61Z"/>
      <path d="M128.1,668.95l6.02,10.42-6.02,10.42h-12.04s-6.02-10.42-6.02-10.42l6.02-10.42h12.04ZM117.28,671.05l-4.8,8.32,4.8,8.32h9.61s4.8-8.32,4.8-8.32l-4.8-8.32h-9.61Z"/>
      <path d="M128.1,759.22l6.02,10.42-6.02,10.42h-12.04s-6.02-10.42-6.02-10.42l6.02-10.42h12.04ZM117.28,761.33l-4.8,8.32,4.8,8.32h9.61s4.8-8.32,4.8-8.32l-4.8-8.32h-9.61Z"/>
      <path d="M128.1,736.65l6.02,10.42-6.02,10.42h-12.04s-6.02-10.42-6.02-10.42l6.02-10.42h12.04ZM117.28,738.76l-4.8,8.32,4.8,8.32h9.61s4.8-8.32,4.8-8.32l-4.8-8.32h-9.61Z"/>
      <path d="M128.1,804.36l6.02,10.42-6.02,10.42h-12.04s-6.02-10.42-6.02-10.42l6.02-10.42h12.04ZM117.28,806.46l-4.8,8.32,4.8,8.32h9.61s4.8-8.32,4.8-8.32l-4.8-8.32h-9.61Z"/>
      <path d="M147.72,116l6.02,10.42-6.02,10.42h-12.04s-6.02-10.42-6.02-10.42l6.02-10.42h12.04ZM136.9,118.11l-4.8,8.32,4.8,8.32h9.61s4.8-8.32,4.8-8.32l-4.8-8.32h-9.61Z"/>
      <path d="M147.72,93.44l6.02,10.42-6.02,10.42h-12.04s-6.02-10.42-6.02-10.42l6.02-10.42h12.04ZM136.9,95.54l-4.8,8.32,4.8,8.32h9.61s4.8-8.32,4.8-8.32l-4.8-8.32h-9.61Z"/>
      <path d="M147.72,70.87l6.02,10.42-6.02,10.42h-12.04s-6.02-10.42-6.02-10.42l6.02-10.42h12.04ZM136.9,72.97l-4.8,8.32,4.8,8.32h9.61s4.8-8.32,4.8-8.32l-4.8-8.32h-9.61Z"/>
      <path d="M147.72,183.71l6.02,10.42-6.02,10.42h-12.04s-6.02-10.42-6.02-10.42l6.02-10.42h12.04ZM136.9,185.82l-4.8,8.32,4.8,8.32h9.61s4.8-8.32,4.8-8.32l-4.8-8.32h-9.61Z"/>
      <path d="M147.72,161.14l6.02,10.42-6.02,10.42h-12.04s-6.02-10.42-6.02-10.42l6.02-10.42h12.04ZM136.9,163.25l-4.8,8.32,4.8,8.32h9.61s4.8-8.32,4.8-8.32l-4.8-8.32h-9.61Z"/>
      <path d="M147.72,138.57l6.02,10.42-6.02,10.42h-12.04s-6.02-10.42-6.02-10.42l6.02-10.42h12.04ZM136.9,140.68l-4.8,8.32,4.8,8.32h9.61s4.8-8.32,4.8-8.32l-4.8-8.32h-9.61Z"/>
      <path d="M147.72,251.42l6.02,10.42-6.02,10.42h-12.04s-6.02-10.42-6.02-10.42l6.02-10.42h12.04ZM136.9,253.52l-4.8,8.32,4.8,8.32h9.61s4.8-8.32,4.8-8.32l-4.8-8.32h-9.61Z"/>
      <path d="M147.72,228.85l6.02,10.42-6.02,10.42h-12.04s-6.02-10.42-6.02-10.42l6.02-10.42h12.04ZM136.9,230.95l-4.8,8.32,4.8,8.32h9.61s4.8-8.32,4.8-8.32l-4.8-8.32h-9.61Z"/>
      <path d="M147.72,206.28l6.02,10.42-6.02,10.42h-12.04s-6.02-10.42-6.02-10.42l6.02-10.42h12.04ZM136.9,208.38l-4.8,8.32,4.8,8.32h9.61s4.8-8.32,4.8-8.32l-4.8-8.32h-9.61Z"/>
      <path d="M147.72,319.12l6.02,10.42-6.02,10.42h-12.04s-6.02-10.42-6.02-10.42l6.02-10.42h12.04ZM136.9,321.23l-4.8,8.32,4.8,8.32h9.61s4.8-8.32,4.8-8.32l-4.8-8.32h-9.61Z"/>
      <path d="M147.72,296.56l6.02,10.42-6.02,10.42h-12.04s-6.02-10.42-6.02-10.42l6.02-10.42h12.04ZM136.9,298.66l-4.8,8.32,4.8,8.32h9.61s4.8-8.32,4.8-8.32l-4.8-8.32h-9.61Z"/>
      <path d="M147.72,273.99l6.02,10.42-6.02,10.42h-12.04s-6.02-10.42-6.02-10.42l6.02-10.42h12.04ZM136.9,276.09l-4.8,8.32,4.8,8.32h9.61s4.8-8.32,4.8-8.32l-4.8-8.32h-9.61Z"/>
      <path d="M147.72,386.83l6.02,10.42-6.02,10.42h-12.04s-6.02-10.42-6.02-10.42l6.02-10.42h12.04ZM136.9,388.94l-4.8,8.32,4.8,8.32h9.61s4.8-8.32,4.8-8.32l-4.8-8.32h-9.61Z"/>
      <path d="M147.72,364.26l6.02,10.42-6.02,10.42h-12.04s-6.02-10.42-6.02-10.42l6.02-10.42h12.04ZM136.9,366.37l-4.8,8.32,4.8,8.32h9.61s4.8-8.32,4.8-8.32l-4.8-8.32h-9.61Z"/>
      <path d="M147.72,341.69l6.02,10.42-6.02,10.42h-12.04s-6.02-10.42-6.02-10.42l6.02-10.42h12.04ZM136.9,343.8l-4.8,8.32,4.8,8.32h9.61s4.8-8.32,4.8-8.32l-4.8-8.32h-9.61Z"/>
      <path d="M147.72,454.54l6.02,10.42-6.02,10.42h-12.04s-6.02-10.42-6.02-10.42l6.02-10.42h12.04ZM136.9,456.64l-4.8,8.32,4.8,8.32h9.61s4.8-8.32,4.8-8.32l-4.8-8.32h-9.61Z"/>
      <path d="M147.72,431.97l6.02,10.42-6.02,10.42h-12.04s-6.02-10.42-6.02-10.42l6.02-10.42h12.04ZM136.9,434.07l-4.8,8.32,4.8,8.32h9.61s4.8-8.32,4.8-8.32l-4.8-8.32h-9.61Z"/>
      <path d="M147.72,409.4l6.02,10.42-6.02,10.42h-12.04s-6.02-10.42-6.02-10.42l6.02-10.42h12.04ZM136.9,411.5l-4.8,8.32,4.8,8.32h9.61s4.8-8.32,4.8-8.32l-4.8-8.32h-9.61Z"/>
      <path d="M147.72,522.25l6.02,10.42-6.02,10.42h-12.04s-6.02-10.42-6.02-10.42l6.02-10.42h12.04ZM136.9,524.35l-4.8,8.32,4.8,8.32h9.61s4.8-8.32,4.8-8.32l-4.8-8.32h-9.61Z"/>
      <path d="M147.72,499.68l6.02,10.42-6.02,10.42h-12.04s-6.02-10.42-6.02-10.42l6.02-10.42h12.04ZM136.9,501.78l-4.8,8.32,4.8,8.32h9.61s4.8-8.32,4.8-8.32l-4.8-8.32h-9.61Z"/>
      <path d="M147.72,477.11l6.02,10.42-6.02,10.42h-12.04s-6.02-10.42-6.02-10.42l6.02-10.42h12.04ZM136.9,479.21l-4.8,8.32,4.8,8.32h9.61s4.8-8.32,4.8-8.32l-4.8-8.32h-9.61Z"/>
      <path d="M147.72,589.95l6.02,10.42-6.02,10.42h-12.04s-6.02-10.42-6.02-10.42l6.02-10.42h12.04ZM136.9,592.06l-4.8,8.32,4.8,8.32h9.61s4.8-8.32,4.8-8.32l-4.8-8.32h-9.61Z"/>
      <path d="M147.72,567.38l6.02,10.42-6.02,10.42h-12.04s-6.02-10.42-6.02-10.42l6.02-10.42h12.04ZM136.9,569.49l-4.8,8.32,4.8,8.32h9.61s4.8-8.32,4.8-8.32l-4.8-8.32h-9.61Z"/>
      <path d="M147.72,544.81l6.02,10.42-6.02,10.42h-12.04s-6.02-10.42-6.02-10.42l6.02-10.42h12.04ZM136.9,546.92l-4.8,8.32,4.8,8.32h9.61s4.8-8.32,4.8-8.32l-4.8-8.32h-9.61Z"/>
      <path d="M147.72,657.66l6.02,10.42-6.02,10.42h-12.04s-6.02-10.42-6.02-10.42l6.02-10.42h12.04ZM136.9,659.76l-4.8,8.32,4.8,8.32h9.61s4.8-8.32,4.8-8.32l-4.8-8.32h-9.61Z"/>
      <path d="M147.72,635.09l6.02,10.42-6.02,10.42h-12.04s-6.02-10.42-6.02-10.42l6.02-10.42h12.04ZM136.9,637.19l-4.8,8.32,4.8,8.32h9.61s4.8-8.32,4.8-8.32l-4.8-8.32h-9.61Z"/>
      <path d="M147.72,612.52l6.02,10.42-6.02,10.42h-12.04s-6.02-10.42-6.02-10.42l6.02-10.42h12.04ZM136.9,614.63l-4.8,8.32,4.8,8.32h9.61s4.8-8.32,4.8-8.32l-4.8-8.32h-9.61Z"/>
      <path d="M147.72,725.37l6.02,10.42-6.02,10.42h-12.04s-6.02-10.42-6.02-10.42l6.02-10.42h12.04ZM136.9,727.47l-4.8,8.32,4.8,8.32h9.61s4.8-8.32,4.8-8.32l-4.8-8.32h-9.61Z"/>
      <path d="M147.72,702.8l6.02,10.42-6.02,10.42h-12.04s-6.02-10.42-6.02-10.42l6.02-10.42h12.04ZM136.9,704.9l-4.8,8.32,4.8,8.32h9.61s4.8-8.32,4.8-8.32l-4.8-8.32h-9.61Z"/>
      <path d="M147.72,680.23l6.02,10.42-6.02,10.42h-12.04s-6.02-10.42-6.02-10.42l6.02-10.42h12.04ZM136.9,682.33l-4.8,8.32,4.8,8.32h9.61s4.8-8.32,4.8-8.32l-4.8-8.32h-9.61Z"/>
      <path d="M147.72,793.07l6.02,10.42-6.02,10.42h-12.04s-6.02-10.42-6.02-10.42l6.02-10.42h12.04ZM136.9,795.18l-4.8,8.32,4.8,8.32h9.61s4.8-8.32,4.8-8.32l-4.8-8.32h-9.61Z"/>
      <path d="M147.72,770.5l6.02,10.42-6.02,10.42h-12.04s-6.02-10.42-6.02-10.42l6.02-10.42h12.04ZM136.9,772.61l-4.8,8.32,4.8,8.32h9.61s4.8-8.32,4.8-8.32l-4.8-8.32h-9.61Z"/>
      <path d="M147.72,838.21l6.02,10.42-6.02,10.42h-12.04s-6.02-10.42-6.02-10.42l6.02-10.42h12.04ZM136.9,840.32l-4.8,8.32,4.8,8.32h9.61s4.8-8.32,4.8-8.32l-4.8-8.32h-9.61Z"/>
      <path d="M167.33,104.72l6.02,10.42-6.02,10.42h-12.04s-6.02-10.42-6.02-10.42l6.02-10.42h12.04ZM156.51,106.83l-4.8,8.32,4.8,8.32h9.61s4.8-8.32,4.8-8.32l-4.8-8.32h-9.61Z"/>
      <path d="M167.33,172.43l6.02,10.42-6.02,10.42h-12.04s-6.02-10.42-6.02-10.42l6.02-10.42h12.04ZM156.51,174.53l-4.8,8.32,4.8,8.32h9.61s4.8-8.32,4.8-8.32l-4.8-8.32h-9.61Z"/>
      <path d="M167.33,149.86l6.02,10.42-6.02,10.42h-12.04s-6.02-10.42-6.02-10.42l6.02-10.42h12.04ZM156.51,151.96l-4.8,8.32,4.8,8.32h9.61s4.8-8.32,4.8-8.32l-4.8-8.32h-9.61Z"/>
      <path d="M167.33,240.13l6.02,10.42-6.02,10.42h-12.04s-6.02-10.42-6.02-10.42l6.02-10.42h12.04ZM156.51,242.24l-4.8,8.32,4.8,8.32h9.61s4.8-8.32,4.8-8.32l-4.8-8.32h-9.61Z"/>
      <path d="M167.33,217.57l6.02,10.42-6.02,10.42h-12.04s-6.02-10.42-6.02-10.42l6.02-10.42h12.04ZM156.51,219.67l-4.8,8.32,4.8,8.32h9.61s4.8-8.32,4.8-8.32l-4.8-8.32h-9.61Z"/>
      <path d="M167.33,195l6.02,10.42-6.02,10.42h-12.04s-6.02-10.42-6.02-10.42l6.02-10.42h12.04ZM156.51,197.1l-4.8,8.32,4.8,8.32h9.61s4.8-8.32,4.8-8.32l-4.8-8.32h-9.61Z"/>
      <path d="M167.33,307.84l6.02,10.42-6.02,10.42h-12.04s-6.02-10.42-6.02-10.42l6.02-10.42h12.04ZM156.51,309.95l-4.8,8.32,4.8,8.32h9.61s4.8-8.32,4.8-8.32l-4.8-8.32h-9.61Z"/>
      <path d="M167.33,285.27l6.02,10.42-6.02,10.42h-12.04s-6.02-10.42-6.02-10.42l6.02-10.42h12.04ZM156.51,287.38l-4.8,8.32,4.8,8.32h9.61s4.8-8.32,4.8-8.32l-4.8-8.32h-9.61Z"/>
      <path d="M167.33,375.55l6.02,10.42-6.02,10.42h-12.04s-6.02-10.42-6.02-10.42l6.02-10.42h12.04ZM156.51,377.65l-4.8,8.32,4.8,8.32h9.61s4.8-8.32,4.8-8.32l-4.8-8.32h-9.61Z"/>
      <path d="M167.33,352.98l6.02,10.42-6.02,10.42h-12.04s-6.02-10.42-6.02-10.42l6.02-10.42h12.04ZM156.51,355.08l-4.8,8.32,4.8,8.32h9.61s4.8-8.32,4.8-8.32l-4.8-8.32h-9.61Z"/>
      <path d="M167.33,330.41l6.02,10.42-6.02,10.42h-12.04s-6.02-10.42-6.02-10.42l6.02-10.42h12.04ZM156.51,332.51l-4.8,8.32,4.8,8.32h9.61s4.8-8.32,4.8-8.32l-4.8-8.32h-9.61Z"/>
      <path d="M167.33,443.26l6.02,10.42-6.02,10.42h-12.04s-6.02-10.42-6.02-10.42l6.02-10.42h12.04ZM156.51,445.36l-4.8,8.32,4.8,8.32h9.61s4.8-8.32,4.8-8.32l-4.8-8.32h-9.61Z"/>
      <path d="M167.33,420.69l6.02,10.42-6.02,10.42h-12.04s-6.02-10.42-6.02-10.42l6.02-10.42h12.04ZM156.51,422.79l-4.8,8.32,4.8,8.32h9.61s4.8-8.32,4.8-8.32l-4.8-8.32h-9.61Z"/>
      <path d="M167.33,398.12l6.02,10.42-6.02,10.42h-12.04s-6.02-10.42-6.02-10.42l6.02-10.42h12.04ZM156.51,400.22l-4.8,8.32,4.8,8.32h9.61s4.8-8.32,4.8-8.32l-4.8-8.32h-9.61Z"/>
      <path d="M167.33,510.96l6.02,10.42-6.02,10.42h-12.04s-6.02-10.42-6.02-10.42l6.02-10.42h12.04ZM156.51,513.07l-4.8,8.32,4.8,8.32h9.61s4.8-8.32,4.8-8.32l-4.8-8.32h-9.61Z"/>
      <path d="M167.33,465.82l6.02,10.42-6.02,10.42h-12.04s-6.02-10.42-6.02-10.42l6.02-10.42h12.04ZM156.51,467.93l-4.8,8.32,4.8,8.32h9.61s4.8-8.32,4.8-8.32l-4.8-8.32h-9.61Z"/>
      <path d="M167.33,578.67l6.02,10.42-6.02,10.42h-12.04s-6.02-10.42-6.02-10.42l6.02-10.42h12.04ZM156.51,580.77l-4.8,8.32,4.8,8.32h9.61s4.8-8.32,4.8-8.32l-4.8-8.32h-9.61Z"/>
      <path d="M167.33,556.1l6.02,10.42-6.02,10.42h-12.04s-6.02-10.42-6.02-10.42l6.02-10.42h12.04ZM156.51,558.2l-4.8,8.32,4.8,8.32h9.61s4.8-8.32,4.8-8.32l-4.8-8.32h-9.61Z"/>
      <path d="M167.33,533.53l6.02,10.42-6.02,10.42h-12.04s-6.02-10.42-6.02-10.42l6.02-10.42h12.04ZM156.51,535.64l-4.8,8.32,4.8,8.32h9.61s4.8-8.32,4.8-8.32l-4.8-8.32h-9.61Z"/>
      <path d="M167.33,646.38l6.02,10.42-6.02,10.42h-12.04s-6.02-10.42-6.02-10.42l6.02-10.42h12.04ZM156.51,648.48l-4.8,8.32,4.8,8.32h9.61s4.8-8.32,4.8-8.32l-4.8-8.32h-9.61Z"/>
      <path d="M167.33,623.81l6.02,10.42-6.02,10.42h-12.04s-6.02-10.42-6.02-10.42l6.02-10.42h12.04ZM156.51,625.91l-4.8,8.32,4.8,8.32h9.61s4.8-8.32,4.8-8.32l-4.8-8.32h-9.61Z"/>
      <path d="M167.33,601.24l6.02,10.42-6.02,10.42h-12.04s-6.02-10.42-6.02-10.42l6.02-10.42h12.04ZM156.51,603.34l-4.8,8.32,4.8,8.32h9.61s4.8-8.32,4.8-8.32l-4.8-8.32h-9.61Z"/>
      <path d="M167.33,714.08l6.02,10.42-6.02,10.42h-12.04s-6.02-10.42-6.02-10.42l6.02-10.42h12.04ZM156.51,716.19l-4.8,8.32,4.8,8.32h9.61s4.8-8.32,4.8-8.32l-4.8-8.32h-9.61Z"/>
      <path d="M167.33,668.95l6.02,10.42-6.02,10.42h-12.04s-6.02-10.42-6.02-10.42l6.02-10.42h12.04ZM156.51,671.05l-4.8,8.32,4.8,8.32h9.61s4.8-8.32,4.8-8.32l-4.8-8.32h-9.61Z"/>
      <path d="M167.33,759.22l6.02,10.42-6.02,10.42h-12.04s-6.02-10.42-6.02-10.42l6.02-10.42h12.04ZM156.51,761.33l-4.8,8.32,4.8,8.32h9.61s4.8-8.32,4.8-8.32l-4.8-8.32h-9.61Z"/>
      <path d="M167.33,736.65l6.02,10.42-6.02,10.42h-12.04s-6.02-10.42-6.02-10.42l6.02-10.42h12.04ZM156.51,738.76l-4.8,8.32,4.8,8.32h9.61s4.8-8.32,4.8-8.32l-4.8-8.32h-9.61Z"/>
      <path d="M167.33,804.36l6.02,10.42-6.02,10.42h-12.04s-6.02-10.42-6.02-10.42l6.02-10.42h12.04ZM156.51,806.46l-4.8,8.32,4.8,8.32h9.61s4.8-8.32,4.8-8.32l-4.8-8.32h-9.61Z"/>
      <path d="M167.33,872.07l6.02,10.42-6.02,10.42h-12.04s-6.02-10.42-6.02-10.42l6.02-10.42h12.04ZM156.51,874.17l-4.8,8.32,4.8,8.32h9.61s4.8-8.32,4.8-8.32l-4.8-8.32h-9.61Z"/>
      <path d="M186.95,183.71l6.02,10.42-6.02,10.42h-12.04s-6.02-10.42-6.02-10.42l6.02-10.42h12.04ZM176.13,185.82l-4.8,8.32,4.8,8.32h9.61s4.8-8.32,4.8-8.32l-4.8-8.32h-9.61Z"/>
      <path d="M186.95,138.57l6.02,10.42-6.02,10.42h-12.04s-6.02-10.42-6.02-10.42l6.02-10.42h12.04ZM176.13,140.68l-4.8,8.32,4.8,8.32h9.61s4.8-8.32,4.8-8.32l-4.8-8.32h-9.61Z"/>
      <path d="M186.95,251.42l6.02,10.42-6.02,10.42h-12.04s-6.02-10.42-6.02-10.42l6.02-10.42h12.04ZM176.13,253.52l-4.8,8.32,4.8,8.32h9.61s4.8-8.32,4.8-8.32l-4.8-8.32h-9.61Z"/>
      <path d="M186.95,319.12l6.02,10.42-6.02,10.42h-12.04s-6.02-10.42-6.02-10.42l6.02-10.42h12.04ZM176.13,321.23l-4.8,8.32,4.8,8.32h9.61s4.8-8.32,4.8-8.32l-4.8-8.32h-9.61Z"/>
      <path d="M186.95,296.56l6.02,10.42-6.02,10.42h-12.04s-6.02-10.42-6.02-10.42l6.02-10.42h12.04ZM176.13,298.66l-4.8,8.32,4.8,8.32h9.61s4.8-8.32,4.8-8.32l-4.8-8.32h-9.61Z"/>
      <path d="M186.95,386.83l6.02,10.42-6.02,10.42h-12.04s-6.02-10.42-6.02-10.42l6.02-10.42h12.04ZM176.13,388.94l-4.8,8.32,4.8,8.32h9.61s4.8-8.32,4.8-8.32l-4.8-8.32h-9.61Z"/>
      <path d="M186.95,364.26l6.02,10.42-6.02,10.42h-12.04s-6.02-10.42-6.02-10.42l6.02-10.42h12.04ZM176.13,366.37l-4.8,8.32,4.8,8.32h9.61s4.8-8.32,4.8-8.32l-4.8-8.32h-9.61Z"/>
      <path d="M186.95,341.69l6.02,10.42-6.02,10.42h-12.04s-6.02-10.42-6.02-10.42l6.02-10.42h12.04ZM176.13,343.8l-4.8,8.32,4.8,8.32h9.61s4.8-8.32,4.8-8.32l-4.8-8.32h-9.61Z"/>
      <path d="M186.95,454.54l6.02,10.42-6.02,10.42h-12.04s-6.02-10.42-6.02-10.42l6.02-10.42h12.04ZM176.13,456.64l-4.8,8.32,4.8,8.32h9.61s4.8-8.32,4.8-8.32l-4.8-8.32h-9.61Z"/>
      <path d="M186.95,431.97l6.02,10.42-6.02,10.42h-12.04s-6.02-10.42-6.02-10.42l6.02-10.42h12.04ZM176.13,434.07l-4.8,8.32,4.8,8.32h9.61s4.8-8.32,4.8-8.32l-4.8-8.32h-9.61Z"/>
      <path d="M186.95,409.4l6.02,10.42-6.02,10.42h-12.04s-6.02-10.42-6.02-10.42l6.02-10.42h12.04ZM176.13,411.5l-4.8,8.32,4.8,8.32h9.61s4.8-8.32,4.8-8.32l-4.8-8.32h-9.61Z"/>
      <path d="M186.95,522.25l6.02,10.42-6.02,10.42h-12.04s-6.02-10.42-6.02-10.42l6.02-10.42h12.04ZM176.13,524.35l-4.8,8.32,4.8,8.32h9.61s4.8-8.32,4.8-8.32l-4.8-8.32h-9.61Z"/>
      <path d="M186.95,499.68l6.02,10.42-6.02,10.42h-12.04s-6.02-10.42-6.02-10.42l6.02-10.42h12.04ZM176.13,501.78l-4.8,8.32,4.8,8.32h9.61s4.8-8.32,4.8-8.32l-4.8-8.32h-9.61Z"/>
      <path d="M186.95,477.11l6.02,10.42-6.02,10.42h-12.04s-6.02-10.42-6.02-10.42l6.02-10.42h12.04ZM176.13,479.21l-4.8,8.32,4.8,8.32h9.61s4.8-8.32,4.8-8.32l-4.8-8.32h-9.61Z"/>
      <path d="M186.95,589.95l6.02,10.42-6.02,10.42h-12.04s-6.02-10.42-6.02-10.42l6.02-10.42h12.04ZM176.13,592.06l-4.8,8.32,4.8,8.32h9.61s4.8-8.32,4.8-8.32l-4.8-8.32h-9.61Z"/>
      <path d="M186.95,544.81l6.02,10.42-6.02,10.42h-12.04s-6.02-10.42-6.02-10.42l6.02-10.42h12.04ZM176.13,546.92l-4.8,8.32,4.8,8.32h9.61s4.8-8.32,4.8-8.32l-4.8-8.32h-9.61Z"/>
      <path d="M186.95,657.66l6.02,10.42-6.02,10.42h-12.04s-6.02-10.42-6.02-10.42l6.02-10.42h12.04ZM176.13,659.76l-4.8,8.32,4.8,8.32h9.61s4.8-8.32,4.8-8.32l-4.8-8.32h-9.61Z"/>
      <path d="M186.95,635.09l6.02,10.42-6.02,10.42h-12.04s-6.02-10.42-6.02-10.42l6.02-10.42h12.04ZM176.13,637.19l-4.8,8.32,4.8,8.32h9.61s4.8-8.32,4.8-8.32l-4.8-8.32h-9.61Z"/>
      <path d="M186.95,702.8l6.02,10.42-6.02,10.42h-12.04s-6.02-10.42-6.02-10.42l6.02-10.42h12.04ZM176.13,704.9l-4.8,8.32,4.8,8.32h9.61s4.8-8.32,4.8-8.32l-4.8-8.32h-9.61Z"/>
      <path d="M186.95,747.94l6.02,10.42-6.02,10.42h-12.04s-6.02-10.42-6.02-10.42l6.02-10.42h12.04ZM176.13,750.04l-4.8,8.32,4.8,8.32h9.61s4.8-8.32,4.8-8.32l-4.8-8.32h-9.61Z"/>
      <path d="M186.95,838.21l6.02,10.42-6.02,10.42h-12.04s-6.02-10.42-6.02-10.42l6.02-10.42h12.04ZM176.13,840.32l-4.8,8.32,4.8,8.32h9.61s4.8-8.32,4.8-8.32l-4.8-8.32h-9.61Z"/>
      <path d="M88.92,601.24l6.02,10.42-6.02,10.42h-12.04s-6.02-10.42-6.02-10.42l6.02-10.42h12.04ZM78.1,603.34l-4.8,8.32,4.8,8.32h9.61s4.8-8.32,4.8-8.32l-4.8-8.32h-9.61Z"/>
      <path d="M167.28,488.39l6.02,10.42-6.02,10.42h-12.04s-6.02-10.42-6.02-10.42l6.02-10.42h12.04ZM156.46,490.5l-4.8,8.32,4.8,8.32h9.61s4.8-8.32,4.8-8.32l-4.8-8.32h-9.61Z"/>
      <path d="M186.95,567.38l6.02,10.42-6.02,10.42h-12.04s-6.02-10.42-6.02-10.42l6.02-10.42h12.04ZM176.13,569.49l-4.8,8.32,4.8,8.32h9.61s4.8-8.32,4.8-8.32l-4.8-8.32h-9.61Z"/>
    </g>
  </g>
  <g id="Masuri_Tab">
    <path class="st0" d="M134.12,634.23l-6.02-10.42v-1.72l6.02-10.42-6.02-10.42h-12.04l-6.02,10.42,6.02,10.42v1.72l-6.02,10.42,6.02,10.42v1.72l-6.02,10.42,6.02,10.42h12.04l6.02-10.42-6.02-10.42v-1.72l6.02-10.42Z"/>
    <path class="st1" d="M119.09,605.54h5.93v4.07s-4.29,1.87-4.29,1.87l4.29,1.88v4.05h-5.93v-2.44s4.71-.06,4.71-.06l-4.73-2.28v-2.28s4.7-2.29,4.7-2.29l-4.68-.04v-2.47ZM123.54,623.49l-2.14-1.55v3.22s2.14-1.67,2.14-1.67ZM119.15,617.93l5.86,4.49v2.78s-4.62,3.32-4.62,3.32l-.03.02c-.05.34-.39,4.32-.42,4.31-.06.64-.22,3.21,1.02,2.69.31-.23.46-1.36.46-1.36l.42-2.08c.46-2,1.14-2.11,1.18-2.13.77-.2,1.06.17,1.36.72.77,1.42.68,3.3.7,4.86.02,1.19-.21,2.61-.21,2.61h-.93c.15-1.03.21-3.59.21-3.57.02-1.28-.35-1.71-.36-1.71-.32-.31-.61.17-.63.18-.16.36-.43,1.79-.41,1.77-.32,2.3-.65,2.87-.63,2.85-.66,1.48-1.45,1.15-1.49,1.16-.52-.03-.92-.7-1.2-1.45-.28-.75-.4-2.78-.4-2.78l.02-2.92.07-2.34v-2.57s1.38-.96,1.38-.96v-4.48s-1.37-.96-1.37-.96v-2.44ZM125.07,639.92l-3.36.02s-1.28-.1-2,1.12c-.01.02-.72,1.14-.65,3.33.01.03-.07,2.08.76,3.19.03.01.41.9,1.59,1.05.03-.01,3.67.02,3.67.02v-2.75s-2.84.01-2.84.01c0,0-.76.06-1.13-.11,0,0-.8-.19-.8-1.55.02.01-.08-1.11.79-1.47.01,0,.33-.12,1.27-.11.94.01,2.71-.02,2.71-.02v-2.74ZM123.9,652.92h-1.39s-.07,1.73.3,2.44c0,0,.55.67.94-.17,0,0,.3-.53.14-2.27ZM124.93,650.1h-5.82s.04,2.58.04,2.58l2.19.03.03.9s.1.86-.58,1.28c-.49.26-1.41.7-1.6,1-.03.03,0,3.38,0,3.38,0,0,.6-.41.8-.52.2-.1.93-.43,1.28-.77,0,0,.62-.64.67-1.31,0,0,.37,1.58.88,1.91.01.04.64.54,1.35-.12.03,0,.67-.5.88-2.87,0-.01.23-3.92-.11-5.48ZM125.08,660.72v2.2h-5.93v-2.2h5.93Z"/>
  </g>
</svg>